<svg xmlns="http://www.w3.org/2000/svg" xmlns:xlink="http://www.w3.org/1999/xlink" width="940" zoomAndPan="magnify" viewBox="0 0 705 591.000005" height="788" preserveAspectRatio="xMidYMid meet" version="1.0"><defs><clipPath id="872fede601"><path d="M 209 59 L 496.347656 59 L 496.347656 530.703125 L 209 530.703125 Z M 209 59 " clip-rule="nonzero"/></clipPath></defs><g clip-path="url(#872fede601)"><path fill="#000000" d="M 395.152344 530.453125 C 393.058594 529.765625 392.46875 529.246094 392.46875 528.097656 C 392.46875 524.15625 406.511719 518.273438 417.910156 517.4375 C 419.542969 517.316406 421.105469 517.148438 421.378906 517.0625 C 421.707031 516.960938 421.234375 515.972656 419.964844 514.105469 C 416.457031 508.949219 399.039062 480.304688 399.039062 479.691406 C 399.039062 479.558594 399.960938 479.449219 401.082031 479.449219 C 402.980469 479.449219 403.175781 479.539062 403.855469 480.703125 C 406.613281 485.445312 420.925781 508.632812 423.296875 512.191406 C 424.890625 514.597656 426.613281 516.832031 427.113281 517.160156 C 427.617188 517.488281 428.03125 518.027344 428.03125 518.359375 C 428.03125 518.6875 428.296875 519.253906 428.625 519.617188 C 429.167969 520.210938 429.132812 520.382812 428.234375 521.449219 C 427.054688 522.839844 420.890625 526.589844 417.523438 527.957031 C 413.179688 529.722656 409.003906 530.449219 402.324219 530.621094 C 398.925781 530.707031 395.695312 530.621094 395.152344 530.453125 Z M 412.183594 526.597656 C 414.890625 526.027344 417.023438 525.230469 420.300781 523.570312 C 426.320312 520.523438 426.238281 520.167969 419.527344 520.222656 C 415.4375 520.261719 413.386719 520.484375 410.058594 521.25 C 404.75 522.476562 399.699219 524.292969 397.246094 525.863281 C 395.414062 527.039062 395.390625 527.078125 396.332031 527.375 C 398.078125 527.925781 408.261719 527.421875 412.183594 526.597656 Z M 236.476562 492.421875 C 232.941406 491.3125 229.941406 489.277344 225.402344 484.910156 C 218.792969 478.542969 216.320312 474.507812 217.5625 472.109375 C 218.1875 470.898438 218.84375 470.566406 220.582031 470.578125 C 224.9375 470.617188 235.914062 478.359375 240.003906 484.285156 C 240.804688 485.449219 241.5625 486.398438 241.6875 486.398438 C 241.8125 486.398438 243.089844 483.921875 244.523438 480.898438 C 247.066406 475.515625 247.148438 475.394531 248.3125 475.457031 C 248.96875 475.496094 249.59375 475.609375 249.710938 475.71875 C 249.820312 475.835938 248.664062 478.5 247.136719 481.644531 C 245.605469 484.789062 244.023438 488.230469 243.617188 489.292969 C 242.378906 492.546875 240.089844 493.546875 236.476562 492.421875 Z M 237.8125 487.292969 C 234.789062 482.878906 229.84375 478.621094 224.226562 475.59375 C 221.152344 473.9375 220.75 473.9375 221.875 475.59375 C 224.519531 479.492188 231.820312 486.03125 235.679688 487.960938 C 237.363281 488.804688 238.816406 489.414062 238.914062 489.320312 C 239.007812 489.222656 238.511719 488.308594 237.8125 487.285156 Z M 473.644531 485.789062 C 473.644531 485.660156 474.414062 484.574219 475.351562 483.375 C 477.527344 480.589844 478.96875 477.308594 479.339844 474.292969 C 479.675781 471.582031 480.523438 471.074219 481.140625 473.21875 C 481.851562 475.714844 480.25 479.121094 475.792969 484.554688 C 474.757812 485.820312 473.644531 486.457031 473.644531 485.789062 Z M 463.980469 483.371094 C 463.980469 483.148438 464.460938 482.738281 465.042969 482.457031 C 466.253906 481.875 468.4375 478.457031 469.058594 476.167969 C 469.621094 474.101562 469.28125 469.808594 468.46875 468.5625 C 467.863281 467.648438 467.863281 467.519531 468.429688 466.945312 C 471.53125 463.847656 473.488281 473.027344 470.808594 478.097656 C 469.558594 480.464844 469.167969 480.941406 467.453125 482.230469 C 465.9375 483.371094 463.972656 484.011719 463.972656 483.371094 Z M 294.285156 478.652344 C 271.53125 478.328125 262.085938 477.4375 251.441406 474.617188 C 249.453125 474.089844 247.132812 473.660156 246.277344 473.660156 C 244.742188 473.660156 244.726562 473.660156 244.910156 472.402344 C 245.007812 471.710938 245.472656 469.691406 245.941406 467.90625 C 246.707031 464.988281 246.746094 464.402344 246.328125 462.078125 C 246.070312 460.652344 245.945312 457.988281 246.042969 456.148438 C 246.136719 454.3125 246.175781 452.8125 246.128906 452.8125 C 246.085938 452.8125 245.289062 454.371094 244.363281 456.277344 C 243.441406 458.179688 242.464844 459.746094 242.199219 459.753906 C 241.933594 459.753906 241.714844 459.613281 241.714844 459.4375 C 241.714844 458.824219 243.226562 454.722656 244.761719 451.15625 C 245.851562 448.628906 246.339844 446.902344 246.449219 445.1875 C 246.527344 443.859375 246.542969 442.773438 246.484375 442.773438 C 246.425781 442.773438 245.910156 443.683594 245.339844 444.800781 C 244.078125 447.292969 241.304688 451.757812 240.808594 452.097656 C 240.460938 452.335938 240.664062 457.179688 241.203125 461.402344 C 241.402344 463.003906 241.546875 463.234375 242.34375 463.234375 C 242.984375 463.234375 243.320312 462.957031 243.488281 462.285156 C 243.769531 461.167969 244.636719 460.328125 244.964844 460.855469 C 245.089844 461.054688 245.003906 461.761719 244.761719 462.4375 C 244.414062 463.433594 244.453125 463.777344 244.960938 464.34375 C 245.902344 465.382812 245.730469 465.773438 244.121094 466.253906 C 243.117188 466.554688 242.226562 466.574219 241.292969 466.316406 L 239.933594 465.941406 L 239.894531 463.523438 C 239.894531 462.195312 239.589844 458.070312 239.246094 454.355469 C 238.054688 441.414062 238.585938 418.964844 240.964844 381.585938 C 241.414062 374.578125 241.871094 364.042969 241.984375 358.171875 C 242.097656 352.308594 242.328125 347.285156 242.492188 347.019531 C 243.027344 346.15625 243.949219 346.941406 244.175781 348.453125 C 244.292969 349.261719 244.507812 351.296875 244.648438 352.972656 L 244.90625 356.019531 L 246.15625 353.316406 C 247.34375 350.761719 248.085938 349.796875 248.53125 350.234375 C 248.636719 350.34375 247.871094 352.238281 246.828125 354.449219 C 245.089844 358.125 244.910156 358.773438 244.707031 362.113281 L 244.488281 365.753906 L 246.375 361.894531 C 248.117188 358.332031 248.289062 357.726562 248.59375 353.980469 C 249.101562 347.746094 249.0625 347.417969 247.800781 347.417969 C 246.367188 347.417969 246.308594 346.0625 247.726562 345.707031 C 248.90625 345.414062 251.375 345.816406 251.375 346.304688 C 251.375 346.492188 252.179688 346.644531 253.160156 346.644531 L 254.941406 346.644531 L 254.285156 345.644531 C 253.921875 345.09375 253.394531 344.007812 253.109375 343.234375 C 252.824219 342.453125 252.578125 342.140625 252.5625 342.527344 C 252.523438 343.574219 251.71875 343.125 250.410156 341.335938 C 249.769531 340.457031 248.941406 339.730469 248.566406 339.722656 C 247.882812 339.683594 247.640625 339.269531 246.746094 336.464844 C 246.234375 334.875 246.601562 334.207031 247.898438 334.371094 C 248.214844 334.40625 249.082031 334.058594 249.828125 333.597656 C 250.570312 333.128906 251.277344 332.707031 251.394531 332.652344 C 251.511719 332.597656 251.964844 330.730469 252.398438 328.496094 C 252.835938 326.261719 253.804688 322.917969 254.550781 321.066406 C 255.484375 318.734375 255.746094 317.691406 255.402344 317.691406 C 254.5625 317.691406 254.371094 316.933594 254.980469 316 C 255.675781 314.941406 255.382812 314.339844 254.082031 314.160156 C 253.292969 314.046875 252.976562 313.621094 252.359375 311.828125 C 251.890625 310.464844 251.335938 309.566406 250.910156 309.453125 C 248.921875 308.933594 251.464844 306.589844 257.019531 303.816406 C 259.339844 302.660156 261.289062 301.574219 261.359375 301.40625 C 261.433594 301.230469 261.917969 301.089844 262.4375 301.089844 C 263.40625 301.089844 263.898438 301.902344 265.292969 305.777344 C 265.757812 307.058594 265.726562 307.277344 264.964844 308.246094 C 264.308594 309.078125 264.226562 309.425781 264.582031 309.851562 C 264.828125 310.148438 265.28125 310.296875 265.597656 310.175781 C 266.890625 309.679688 275.351562 312.6875 278.050781 314.605469 L 279.195312 315.421875 L 281.027344 314.160156 C 283.558594 312.421875 286.816406 311.148438 288.765625 311.136719 C 290.039062 311.136719 290.6875 311.378906 291.664062 312.257812 L 292.929688 313.382812 L 293.042969 317.953125 C 293.171875 322.855469 292.742188 326.835938 291.554688 331.835938 C 290.652344 335.605469 290.609375 337.777344 291.378906 340.3125 C 291.695312 341.355469 291.953125 342.761719 291.957031 343.445312 C 291.957031 344.296875 292.296875 344.988281 293.023438 345.664062 C 294.007812 346.578125 294.347656 346.644531 297.894531 346.644531 L 301.703125 346.644531 L 300.90625 345.292969 C 300.46875 344.554688 299.300781 341.125 298.308594 337.671875 C 297.320312 334.21875 296.351562 331.09375 296.152344 330.722656 C 295.960938 330.351562 295.382812 330.046875 294.871094 330.046875 C 293.527344 330.046875 293.40625 329.539062 294.398438 328.066406 C 295.035156 327.117188 296.527344 326.113281 299.898438 324.363281 C 302.441406 323.042969 304.753906 321.953125 305.035156 321.949219 C 306.03125 321.910156 306.652344 323.039062 306.652344 324.835938 C 306.652344 326.472656 306.578125 326.613281 305.78125 326.5 C 305.117188 326.410156 304.886719 326.085938 304.792969 325.132812 L 304.671875 323.882812 L 300.757812 325.851562 C 297.527344 327.464844 296.960938 327.875 297.523438 328.191406 C 298.011719 328.464844 298.757812 328.347656 300.203125 327.769531 C 303.863281 326.300781 305.097656 326.480469 306.03125 328.597656 C 308.367188 333.941406 310.675781 342.703125 310.335938 344.964844 L 310.085938 346.644531 L 319.902344 346.644531 L 319.660156 344.621094 C 319.523438 343.503906 319.410156 340.777344 319.410156 338.558594 C 319.410156 335.417969 319.304688 334.628906 318.945312 334.988281 C 318.296875 335.632812 317.476562 335.566406 317.476562 334.871094 C 317.476562 334.09375 316.289062 334.132812 313.035156 335.039062 C 310.246094 335.804688 309.746094 335.777344 309.746094 334.855469 C 309.746094 333.8125 312.152344 332.765625 316.847656 331.78125 C 317.957031 331.550781 317.949219 331.539062 315.371094 329.5625 C 312.867188 327.644531 312.785156 327.527344 313.011719 326.203125 L 313.242188 324.835938 L 312.449219 325.863281 C 310.660156 328.191406 310.183594 328.683594 309.945312 328.445312 C 309.632812 328.128906 310.96875 325.464844 312.480469 323.378906 C 313.105469 322.519531 313.601562 321.457031 313.59375 321.011719 C 313.59375 320.347656 313.269531 320.539062 311.863281 322.109375 C 309.792969 324.417969 309.253906 324.242188 310.902344 321.804688 C 313.703125 317.664062 319.207031 314.878906 324.699219 314.824219 L 327.480469 314.785156 L 327.722656 312.855469 C 329.992188 294.964844 334.070312 279.40625 341.324219 260.929688 C 342.703125 257.429688 345.292969 250.5625 347.085938 245.683594 C 348.875 240.796875 350.835938 235.644531 351.449219 234.230469 L 352.558594 231.660156 L 350.828125 231.222656 C 349.710938 230.941406 348.484375 230.210938 347.371094 229.15625 C 345.40625 227.3125 345.015625 225.847656 345.488281 222.085938 C 345.800781 219.589844 345.175781 220.300781 357.703125 208.234375 C 362.777344 203.34375 367.582031 197.792969 368.882812 195.328125 C 369.339844 194.453125 371.847656 185.511719 372.253906 183.292969 C 372.429688 182.308594 372.375 182.285156 369.789062 182.019531 C 357.546875 180.785156 342.839844 173.550781 333.269531 164.058594 C 326.988281 157.828125 323.40625 151.75 321.28125 143.722656 C 320.449219 140.5625 320.375 139.535156 320.378906 130.828125 C 320.378906 120.425781 320.722656 117.765625 322.960938 110.769531 C 325.457031 102.964844 329.058594 96.21875 334.089844 89.945312 C 335.144531 88.625 335.550781 87.652344 335.894531 85.605469 C 336.792969 80.277344 340.183594 74.925781 345.167969 70.972656 C 348.914062 68 352.074219 66.269531 358.277344 63.789062 C 367.460938 60.128906 373.371094 59 383.351562 59.007812 C 391.410156 59.007812 395.640625 59.605469 401.933594 61.605469 C 409.78125 64.101562 416.277344 67.976562 418.8125 71.675781 C 419.378906 72.503906 419.523438 72.527344 421.457031 72.113281 C 422.585938 71.871094 425 71.753906 426.828125 71.84375 C 429.578125 71.984375 430.558594 72.21875 432.492188 73.210938 C 436.292969 75.144531 438.808594 77.949219 441.304688 83.019531 C 445.476562 91.5 446.96875 100.953125 446.96875 118.867188 C 446.96875 131.484375 446.042969 141.273438 443.453125 156.117188 C 439.253906 180.191406 438.648438 184.441406 438.019531 194.335938 C 437.484375 202.789062 437.722656 206.59375 439.039062 210.742188 C 440.703125 215.972656 444.207031 222.226562 447.246094 225.375 C 447.945312 226.101562 448.515625 226.910156 448.515625 227.175781 C 448.515625 228.226562 445.890625 228.574219 436.339844 228.785156 C 424.976562 229.03125 420.824219 228.652344 414.019531 226.746094 C 405.3125 224.308594 398.355469 220.125 393.964844 214.679688 C 391.277344 211.355469 389.835938 208.476562 388.414062 203.613281 C 387.882812 201.796875 387.027344 198.863281 386.503906 197.085938 C 385.988281 195.304688 385.28125 191.789062 384.933594 189.269531 C 384.59375 186.746094 384.234375 184.164062 384.136719 183.527344 L 383.964844 182.367188 L 379.746094 182.488281 L 375.53125 182.609375 L 374.730469 185.578125 C 372.855469 192.554688 372.859375 192.082031 374.652344 195.015625 C 375.527344 196.453125 378.128906 201.578125 380.429688 206.40625 C 389.488281 225.421875 390.933594 228.382812 397.519531 241.433594 C 401.265625 248.867188 404.628906 255.902344 404.992188 257.070312 C 405.351562 258.238281 405.8125 259.492188 406.011719 259.863281 C 406.214844 260.230469 406.378906 260.761719 406.378906 261.035156 C 406.378906 262.011719 402.167969 265.714844 388.230469 276.976562 C 379.023438 284.421875 368.625 293.6875 359.710938 302.390625 L 352.613281 309.320312 L 353.5625 310.121094 C 354.648438 311.035156 355.527344 312.664062 355.921875 314.496094 C 356.101562 315.335938 356.464844 315.816406 357.03125 315.949219 C 357.488281 316.0625 361.089844 316.207031 365.019531 316.273438 C 369.492188 316.34375 372.484375 316.558594 373.007812 316.835938 C 374.445312 317.605469 376.578125 320.425781 377.421875 322.667969 C 377.914062 323.984375 378.3125 326.183594 378.441406 328.324219 L 378.652344 331.824219 L 381.226562 331.070312 C 383.203125 330.488281 384.320312 330.378906 386.027344 330.589844 C 387.382812 330.757812 388.203125 331.035156 388.117188 331.292969 C 388.035156 331.527344 386.328125 332.03125 384.324219 332.40625 C 379.226562 333.367188 378.164062 333.914062 378.164062 335.59375 C 378.164062 336.324219 378.0625 337.1875 377.933594 337.511719 C 377.777344 337.929688 378.136719 338.28125 379.179688 338.714844 C 382.214844 339.984375 383.132812 341.828125 380.578125 341.527344 C 379.78125 341.429688 378.835938 341.226562 378.476562 341.070312 C 377.996094 340.855469 377.8125 340.96875 377.785156 341.484375 C 377.785156 341.875 377.652344 343.195312 377.53125 344.414062 L 377.316406 346.632812 L 387.308594 346.632812 C 404.121094 346.632812 430.328125 346.140625 430.132812 345.828125 C 429.65625 345.054688 431.265625 343.191406 435.675781 339.421875 C 438.324219 337.15625 443.121094 332.722656 446.335938 329.558594 C 456.414062 319.660156 461.734375 315.269531 466.257812 313.113281 C 468.847656 311.878906 469.496094 311.734375 473.214844 311.589844 C 477.3125 311.425781 477.3125 311.425781 478.984375 312.648438 C 482.972656 315.558594 483.21875 321.765625 479.585938 327.949219 C 478.464844 329.863281 474.589844 333.859375 469.773438 338.074219 C 468.183594 339.464844 465.699219 341.742188 464.261719 343.132812 C 461.703125 345.605469 461.664062 345.671875 462.445312 346.261719 L 463.246094 346.863281 L 462.394531 347.941406 C 461.570312 348.984375 461.527344 349.519531 461.039062 364.910156 C 460.761719 373.652344 460.253906 391.570312 459.910156 404.738281 C 459.566406 417.898438 459.152344 430.582031 458.988281 432.917969 C 458.828125 435.253906 458.847656 437.46875 459.03125 437.84375 C 459.21875 438.21875 459.539062 442.992188 459.742188 448.460938 C 460.066406 457.09375 460.558594 465.292969 461.164062 472.351562 C 461.265625 473.496094 461.128906 474.710938 460.875 475.207031 C 460.429688 476.035156 460.296875 476.054688 457.265625 475.726562 C 453.050781 475.269531 444.964844 475.308594 428.09375 475.882812 C 415.363281 476.3125 410.558594 476.613281 395.171875 477.90625 C 382.554688 478.964844 339.128906 479.285156 294.28125 478.644531 Z M 375.453125 475.578125 C 385.332031 475.363281 395.332031 475.019531 397.679688 474.8125 C 415.738281 473.203125 434.226562 472.324219 449.585938 472.339844 C 457.1875 472.339844 458.160156 472.28125 458 471.746094 C 457.457031 469.988281 457.03125 463.328125 457.03125 456.671875 C 457.03125 452.527344 456.828125 445.429688 456.578125 440.890625 C 456.226562 434.519531 456.226562 427.726562 456.578125 411.164062 C 457.179688 383.410156 458.253906 354.152344 458.816406 350.347656 L 459.035156 348.839844 L 452.519531 349.179688 C 448.929688 349.367188 442.34375 349.441406 437.878906 349.339844 C 433.414062 349.238281 424.457031 349.21875 417.972656 349.292969 C 406.140625 349.421875 379.3125 349.5 376.417969 349.40625 C 371.878906 349.261719 360.558594 349.828125 360.324219 350.210938 C 359.996094 350.738281 355.71875 350.785156 341.628906 350.414062 C 335.675781 350.261719 322.71875 350.0625 312.832031 349.984375 C 302.945312 349.902344 296.640625 349.90625 298.820312 349.984375 C 301 350.070312 302.78125 350.285156 302.78125 350.460938 C 302.78125 350.945312 297.96875 351.242188 286.160156 351.488281 C 275.085938 351.71875 273.484375 351.546875 275.121094 350.296875 C 275.789062 349.789062 274.546875 349.726562 263.847656 349.726562 L 251.832031 349.726562 L 251.605469 351.5625 C 251.277344 354.289062 249.804688 394.351562 249.875 398.757812 C 249.949219 403.476562 250.898438 392.527344 251.351562 381.769531 C 251.5625 376.78125 251.738281 372.65625 251.746094 372.601562 C 251.746094 372.546875 252.007812 372.503906 252.308594 372.503906 C 253.621094 372.503906 254.0625 379.8125 253.292969 388.910156 C 252.5 398.300781 250.785156 409.722656 250.21875 409.375 C 250.0625 409.28125 249.800781 419.230469 249.640625 431.484375 C 249.476562 443.742188 249.328125 454.984375 249.308594 456.472656 C 249.308594 457.957031 249.417969 461.273438 249.605469 463.839844 C 249.898438 468.003906 249.863281 468.535156 249.300781 468.75 C 248.246094 469.152344 248.527344 470.433594 249.730469 470.691406 C 250.3125 470.816406 252.707031 471.355469 255.042969 471.894531 C 260.535156 473.152344 267.996094 474.277344 274.566406 474.835938 C 285.242188 475.742188 346.621094 476.191406 375.445312 475.570312 Z M 310.519531 474.195312 C 302.714844 473.652344 298.539062 472.863281 298.539062 471.933594 C 298.539062 471.667969 304.644531 471.535156 317.1875 471.53125 C 334.503906 471.53125 336.664062 471.445312 347.351562 470.457031 C 356.890625 469.570312 359.128906 469.464844 360.410156 469.851562 C 361.257812 470.101562 361.898438 470.484375 361.824219 470.695312 C 361.554688 471.515625 357.808594 472.089844 346.277344 473.082031 C 334.941406 474.054688 316.703125 474.621094 310.519531 474.195312 Z M 266.648438 471.933594 C 260.933594 471.125 257.949219 470.15625 257.949219 469.109375 C 257.949219 468.484375 258.253906 468.511719 263.167969 469.566406 C 266.265625 470.230469 272.609375 470.8125 280.867188 471.195312 C 284.734375 471.375 286.535156 471.597656 286.4375 471.882812 C 286.230469 472.507812 270.988281 472.546875 266.648438 471.933594 Z M 367.492188 471.296875 C 366.789062 470.519531 366.789062 470.488281 367.53125 469.957031 C 368.464844 469.277344 369.214844 469.285156 370.453125 469.996094 C 370.984375 470.300781 371.972656 470.550781 372.652344 470.558594 C 373.773438 470.558594 374.652344 471.140625 374.21875 471.570312 C 374.121094 471.667969 372.734375 471.824219 371.140625 471.921875 C 368.566406 472.074219 368.148438 472.003906 367.507812 471.300781 Z M 421.457031 469.785156 C 412.648438 469.105469 411.011719 468.910156 410.375 468.441406 C 409.78125 468.011719 409.765625 467.871094 410.257812 467.28125 C 410.746094 466.695312 411.242188 466.648438 414.300781 466.894531 C 416.21875 467.054688 423.441406 467.332031 430.351562 467.519531 C 447.851562 467.996094 450.507812 468.421875 443.542969 469.652344 C 440.363281 470.210938 427.929688 470.289062 421.457031 469.785156 Z M 251.378906 468.652344 C 251.378906 468.398438 251.945312 467.992188 252.636719 467.753906 C 253.328125 467.507812 256.417969 466.023438 259.496094 464.441406 C 269.628906 459.257812 273.351562 457.46875 278.914062 455.089844 C 281.9375 453.800781 284.914062 452.484375 285.527344 452.167969 C 286.316406 451.757812 286.765625 451.707031 287.054688 451.996094 C 287.34375 452.285156 285.535156 453.328125 280.921875 455.535156 C 277.324219 457.25 269.816406 460.914062 264.242188 463.671875 C 254.5 468.492188 251.378906 469.699219 251.378906 468.652344 Z M 250.371094 466.640625 C 250.089844 466.179688 264.425781 451.816406 264.796875 452.1875 C 265.371094 452.761719 263.800781 454.753906 258.578125 460.066406 C 252.644531 466.101562 250.898438 467.5 250.371094 466.640625 Z M 449.972656 462.140625 C 448.78125 461.417969 448.441406 460.804688 448.765625 459.953125 C 449.148438 458.949219 450.015625 459.320312 451.027344 460.910156 C 451.558594 461.757812 451.996094 462.535156 451.996094 462.648438 C 451.996094 463.023438 451.035156 462.78125 449.972656 462.140625 Z M 451.714844 456.367188 C 449.335938 451.480469 448.777344 448.226562 448.105469 435.4375 C 447.875 431.089844 447.660156 427.097656 447.621094 426.570312 C 447.523438 425.234375 448.644531 425.105469 449.230469 426.386719 C 449.484375 426.945312 449.863281 429.6875 450.074219 432.480469 C 451.089844 445.945312 451.464844 448.589844 453.820312 458.890625 C 454.242188 460.742188 453.28125 459.582031 451.714844 456.367188 Z M 254.085938 455.601562 C 254.085938 454.875 257.296875 449.164062 257.917969 448.777344 C 258.832031 448.214844 258.53125 449.429688 256.945312 452.722656 C 255.925781 454.839844 254.996094 456.285156 254.65625 456.285156 C 254.34375 456.285156 254.085938 455.976562 254.085938 455.601562 Z M 424.332031 455.769531 C 422.507812 455.167969 418.753906 453.128906 418.753906 452.738281 C 418.753906 452.121094 419.53125 452.082031 420.84375 452.628906 C 422.84375 453.464844 431.148438 453.832031 434.273438 453.21875 C 437.214844 452.648438 440.171875 451.128906 441.226562 449.644531 C 441.988281 448.578125 443.105469 448.179688 443.105469 448.96875 C 443.105469 450.238281 441.035156 452.707031 438.855469 454.03125 C 435.746094 455.914062 427.707031 456.878906 424.332031 455.769531 Z M 380.871094 455.324219 C 380.488281 454.855469 380.515625 454.554688 381.027344 453.78125 C 381.671875 452.796875 382.804688 452.457031 382.804688 453.242188 C 382.804688 453.535156 383.570312 453.621094 385.125 453.507812 C 387.976562 453.300781 388.277344 454.015625 385.800781 455.140625 C 383.824219 456.03125 381.535156 456.121094 380.871094 455.324219 Z M 389.183594 444 C 385.613281 442.058594 384.742188 441.425781 384.742188 440.746094 C 384.742188 439.503906 386.75 439.914062 388.238281 441.457031 C 388.96875 442.21875 390.050781 443.089844 390.632812 443.394531 C 391.214844 443.699219 391.695312 444.207031 391.695312 444.523438 C 391.695312 445.28125 391.441406 445.230469 389.183594 444 Z M 417.207031 443.542969 C 414.09375 443.335938 411.796875 442.511719 411.796875 441.59375 C 411.796875 440.816406 412.746094 440.871094 415.292969 441.789062 C 416.796875 442.328125 418.710938 442.773438 419.550781 442.773438 C 420.390625 442.773438 421.074219 442.9375 421.074219 443.136719 C 421.074219 443.726562 420.660156 443.769531 417.207031 443.542969 Z M 280.132812 441.832031 C 275.367188 440.699219 272.972656 438.128906 273.804688 435.039062 C 274.308594 433.15625 275.34375 432.941406 275.34375 434.71875 C 275.34375 435.601562 275.710938 436.273438 276.714844 437.21875 C 277.988281 438.414062 281.09375 439.6875 282.753906 439.6875 C 284.078125 439.6875 286.953125 440.621094 286.820312 441.007812 C 286.75 441.226562 286.011719 441.535156 285.175781 441.699219 C 284.339844 441.863281 283.308594 442.066406 282.882812 442.152344 C 282.457031 442.234375 281.21875 442.089844 280.132812 441.832031 Z M 337.683594 440.675781 C 333.929688 439.765625 330.824219 436.734375 329.8125 433 C 329.355469 431.292969 329.675781 429.261719 330.410156 429.261719 C 330.679688 429.261719 331.285156 430.3125 331.757812 431.597656 C 332.761719 434.351562 334.390625 436.332031 336.578125 437.457031 C 338.773438 438.59375 343.511719 438.824219 346.828125 437.960938 C 349.621094 437.230469 353.074219 435.613281 353.542969 434.808594 C 353.992188 434.042969 354.585938 434.160156 354.585938 435.015625 C 354.585938 435.988281 352.191406 438.039062 349.773438 439.144531 C 345.402344 441.136719 341.59375 441.621094 337.683594 440.675781 Z M 362.878906 430 C 362.476562 429.351562 363.238281 428.832031 364.882812 428.636719 C 366.601562 428.433594 367.558594 428.910156 367.21875 429.804688 C 366.941406 430.527344 363.308594 430.695312 362.878906 430 Z M 400.066406 424.421875 C 400.191406 424.097656 399.84375 422.835938 399.300781 421.617188 C 397.910156 418.527344 397.621094 416.449219 398.464844 415.609375 C 399.757812 414.316406 400.386719 415.699219 400.964844 421.140625 C 401.296875 424.253906 401.179688 425.015625 400.363281 425.015625 C 400.050781 425.015625 399.929688 424.777344 400.066406 424.421875 Z M 367.054688 418.054688 C 366.097656 417.671875 366.078125 417.628906 366.417969 416.746094 C 366.609375 416.257812 367.300781 416.136719 369.996094 416.140625 C 371.832031 416.140625 376.9375 415.863281 381.339844 415.519531 C 387.949219 415 389.917969 414.972656 392.648438 415.359375 C 394.464844 415.617188 396.039062 415.972656 396.148438 416.148438 C 396.496094 416.710938 395.460938 417.050781 393.648438 416.964844 C 392.679688 416.917969 387.476562 417.234375 382.082031 417.664062 C 371.472656 418.519531 368.402344 418.59375 367.054688 418.054688 Z M 262.835938 417.800781 C 262.523438 417.484375 262.511719 413.308594 262.835938 412.5 C 263.128906 411.734375 263.992188 411.703125 264.277344 412.445312 C 264.394531 412.753906 264.328125 413.578125 264.128906 414.277344 C 263.925781 414.976562 263.761719 416.019531 263.761719 416.59375 C 263.761719 417.644531 263.300781 418.25 262.847656 417.800781 Z M 304.621094 406.703125 C 302.835938 406.066406 302.125 405.496094 301.421875 404.136719 C 300.945312 403.222656 300.953125 403.027344 301.464844 402.601562 C 301.953125 402.199219 302.261719 402.324219 303.316406 403.34375 C 304.011719 404.019531 305.175781 404.738281 305.90625 404.949219 C 307.933594 405.527344 313.046875 405.410156 314.636719 404.746094 C 315.402344 404.425781 316.289062 404.167969 316.605469 404.167969 C 317.769531 404.167969 316.3125 405.246094 313.785156 406.257812 C 310.941406 407.394531 307.085938 407.582031 304.621094 406.703125 Z M 281.722656 402.15625 C 280.570312 401.496094 280.011719 400.625 279.996094 399.464844 C 279.996094 398.183594 280.726562 397.644531 281.234375 398.558594 C 282.214844 400.304688 283.105469 400.789062 284.957031 400.582031 C 286.457031 400.417969 286.984375 400.113281 288.207031 398.746094 C 289.003906 397.839844 289.757812 397.203125 289.882812 397.328125 C 290.566406 398.007812 288.367188 401.105469 286.527344 402.058594 C 285.230469 402.730469 282.808594 402.777344 281.722656 402.15625 Z M 326.960938 399.941406 C 326.628906 399.402344 327.054688 398.765625 327.746094 398.765625 C 328.457031 398.765625 328.460938 399.3125 327.746094 399.894531 C 327.371094 400.203125 327.121094 400.21875 326.949219 399.941406 Z M 451 392.492188 C 451.148438 388.613281 451.445312 383.449219 451.65625 381.003906 C 451.871094 378.5625 452.183594 374.167969 452.347656 371.242188 C 452.640625 366.039062 452.984375 364.789062 453.957031 365.386719 C 454.53125 365.742188 454.242188 377.429688 453.347656 389.882812 C 453.039062 394.234375 452.777344 397.917969 452.773438 398.0625 C 452.773438 398.476562 451.59375 399.535156 451.140625 399.535156 C 450.855469 399.535156 450.8125 397.390625 451 392.492188 Z M 407.542969 397.621094 C 407.542969 397.382812 408.230469 396.253906 409.074219 395.117188 C 413.40625 389.261719 413.8125 387.777344 411.667969 385.703125 C 410.960938 385.015625 409.265625 383.722656 407.898438 382.828125 C 405.242188 381.082031 404.605469 379.769531 406.308594 379.527344 C 407.429688 379.367188 412.453125 382.453125 414.074219 384.296875 C 416.660156 387.242188 416.136719 389.273438 411.53125 394.222656 C 408.109375 397.890625 407.542969 398.375 407.542969 397.621094 Z M 294.695312 395.699219 C 293.851562 395.164062 294.792969 394.265625 296.523438 393.949219 C 298.316406 393.621094 302.660156 391.242188 303.28125 390.242188 C 303.78125 389.453125 304.722656 389.230469 304.722656 389.898438 C 304.722656 390.734375 301.089844 394.140625 299.195312 395.082031 C 297.15625 396.09375 295.652344 396.304688 294.695312 395.699219 Z M 394.015625 389.304688 C 394.015625 388.984375 394.359375 388.726562 394.789062 388.726562 C 395.214844 388.726562 395.5625 388.984375 395.5625 389.304688 C 395.5625 389.625 395.214844 389.882812 394.789062 389.882812 C 394.359375 389.882812 394.015625 389.625 394.015625 389.304688 Z M 377.238281 385.9375 C 375.402344 385.558594 372.773438 384.207031 372.503906 383.503906 C 372.167969 382.625 374.144531 376.253906 376.449219 370.773438 C 378.871094 365.03125 379.039062 364.695312 379.597656 364.507812 C 380.71875 364.132812 380.257812 366.195312 377.800781 372.515625 C 376.328125 376.3125 374.84375 379.9375 374.515625 380.578125 C 374.183594 381.21875 373.914062 381.894531 373.914062 382.078125 C 373.914062 382.34375 378.363281 384.183594 381.164062 385.074219 C 381.429688 385.160156 381.644531 385.386719 381.644531 385.582031 C 381.644531 386.078125 378.945312 386.292969 377.238281 385.9375 Z M 263.480469 374.925781 C 263.351562 374.554688 262.675781 372.859375 261.984375 371.160156 C 260.390625 367.261719 259.234375 362.753906 258.773438 358.667969 C 258.363281 355.015625 258.53125 353.980469 259.515625 353.980469 C 260.335938 353.980469 260.421875 354.222656 261.242188 358.808594 C 261.96875 362.871094 263.445312 368.636719 264.609375 371.960938 C 265.0625 373.25 265.320312 374.597656 265.183594 374.953125 C 264.855469 375.800781 263.792969 375.785156 263.480469 374.914062 Z M 420.503906 374.460938 C 420.25 374.046875 421.480469 373.285156 422.398438 373.285156 C 423.121094 373.285156 423.179688 373.726562 422.542969 374.363281 C 421.984375 374.921875 420.820312 374.976562 420.503906 374.460938 Z M 310.886719 374.03125 C 306.300781 373.355469 301.714844 370.714844 301.050781 368.363281 C 300.632812 366.882812 301.902344 366.808594 303.203125 368.230469 C 304.722656 369.894531 307.945312 371.304688 311.789062 371.984375 C 315.308594 372.609375 319.703125 372.769531 321.632812 372.34375 C 322.609375 372.125 322.890625 372.191406 322.890625 372.632812 C 322.890625 373.324219 322.128906 373.527344 317.660156 374.042969 C 313.828125 374.476562 313.914062 374.476562 310.886719 374.042969 Z M 426.097656 369.421875 C 426.097656 369.203125 427.101562 368.390625 428.320312 367.617188 C 430.949219 365.949219 436.417969 361.746094 437.464844 360.585938 C 438.386719 359.5625 439.242188 359.535156 439.242188 360.53125 C 439.242188 361.472656 435.285156 364.667969 430.453125 367.625 C 426.855469 369.824219 426.097656 370.136719 426.097656 369.421875 Z M 329.117188 367.738281 C 328.875 367.441406 328.785156 366.921875 328.917969 366.578125 C 329.214844 365.804688 330.234375 365.746094 330.234375 366.496094 C 330.234375 366.796875 330.441406 367.109375 330.691406 367.195312 C 331.261719 367.382812 330.75 368.265625 330.066406 368.265625 C 329.785156 368.265625 329.359375 368.027344 329.117188 367.738281 Z M 333.039062 367.738281 C 331.84375 367.144531 331.941406 366.851562 333.511719 366.335938 C 335.476562 365.6875 336.300781 366.398438 335.039062 367.65625 C 334.355469 368.335938 334.257812 368.339844 333.039062 367.738281 Z M 268.773438 367.480469 C 268.773438 367.265625 268.082031 365.644531 267.234375 363.878906 C 264.957031 359.132812 264.464844 357.59375 265.070312 357.09375 C 265.996094 356.324219 267.363281 358.5625 268.960938 363.457031 C 270.082031 366.878906 270.167969 367.875 269.355469 367.875 C 269.039062 367.875 268.773438 367.699219 268.773438 367.480469 Z M 320.957031 356.292969 C 320.957031 356.082031 320.707031 355.90625 320.402344 355.90625 C 319.617188 355.90625 319.214844 355.113281 319.808594 354.742188 C 320.375 354.394531 321.394531 354.679688 321.820312 355.300781 C 322.296875 355.988281 322.152344 356.679688 321.539062 356.679688 C 321.21875 356.679688 320.957031 356.503906 320.957031 356.292969 Z M 373.816406 353.351562 C 373.042969 353.117188 372.90625 352.097656 373.625 351.871094 C 373.890625 351.785156 383.328125 351.617188 394.59375 351.503906 C 413.296875 351.304688 424.859375 351.503906 424.375 351.964844 C 424.273438 352.070312 421.179688 352.394531 417.507812 352.6875 C 410.929688 353.214844 375.171875 353.761719 373.816406 353.351562 Z M 253.699219 352.820312 C 252.667969 352.671875 252.347656 352.441406 252.347656 351.855469 C 252.347656 351.105469 252.625 351.082031 261.914062 351.019531 C 267.277344 350.980469 271.480469 351.113281 271.480469 351.300781 C 271.480469 351.675781 270.761719 351.867188 267.808594 352.265625 C 264.914062 352.660156 255.246094 353.039062 253.699219 352.820312 Z M 431.125 351.132812 C 431.125 350.824219 431.71875 350.507812 432.574219 350.363281 C 434.78125 350 439.242188 350.070312 439.242188 350.472656 C 439.242188 350.96875 435.742188 351.660156 433.230469 351.660156 C 431.703125 351.660156 431.125 351.515625 431.125 351.132812 Z M 245.199219 441.5625 C 246.675781 439.402344 246.742188 439.175781 246.734375 436.308594 L 246.734375 433.3125 L 244.679688 437.171875 C 243.550781 439.296875 242.074219 441.953125 241.402344 443.074219 C 240.304688 444.90625 240.175781 445.433594 240.183594 448.09375 L 240.183594 451.070312 L 241.921875 447.445312 C 242.875 445.453125 244.347656 442.804688 245.199219 441.5625 Z M 242.773438 437.558594 C 243.933594 435.222656 245.3125 432.75 245.832031 432.058594 C 246.609375 431.03125 246.761719 430.4375 246.664062 428.8125 L 246.546875 426.820312 L 244.226562 430.742188 C 242.953125 432.894531 241.691406 434.660156 241.425781 434.660156 C 241.160156 434.660156 240.941406 434.574219 240.941406 434.464844 C 240.941406 434.128906 243.003906 430.015625 244.9375 426.496094 L 246.769531 423.160156 L 246.660156 419.277344 L 246.546875 415.398438 L 243.390625 421.652344 L 240.230469 427.90625 L 240.0625 435.820312 C 239.9375 441.335938 240.003906 443.441406 240.273438 442.769531 C 240.488281 442.238281 241.609375 439.894531 242.773438 437.558594 Z M 242.945312 419.164062 C 244.359375 416.445312 245.675781 414.398438 246.0625 414.289062 C 246.683594 414.128906 246.738281 413.398438 246.71875 405.757812 C 246.679688 400.238281 246.570312 397.710938 246.335938 398.300781 C 245.691406 399.894531 242.792969 404.734375 242.191406 405.214844 C 241.78125 405.539062 241.554688 406.605469 241.449219 408.6875 L 241.296875 411.691406 L 242.328125 409.375 C 244.085938 405.398438 245.582031 403.8125 245.582031 405.921875 C 245.582031 407.035156 245.039062 408.1875 242.621094 412.1875 C 240.949219 414.941406 240.914062 415.089844 240.632812 419.425781 C 240.480469 421.859375 240.382812 423.855469 240.425781 423.855469 C 240.46875 423.855469 241.597656 421.742188 242.945312 419.164062 Z M 243.867188 400.015625 C 244.824219 397.945312 245.847656 396.070312 246.144531 395.84375 C 246.511719 395.5625 246.75 394.140625 246.90625 391.210938 L 247.136719 386.984375 L 246.414062 388.53125 C 246.019531 389.378906 244.980469 391.230469 244.113281 392.648438 C 242.855469 394.699219 242.488281 395.726562 242.308594 397.667969 C 242.179688 399.011719 241.988281 400.9375 241.882812 401.945312 C 241.777344 402.953125 241.789062 403.777344 241.921875 403.777344 C 242.039062 403.777344 242.921875 402.082031 243.878906 400.015625 Z M 246.394531 385.417969 C 246.878906 384.890625 247.128906 384.054688 247.128906 382.945312 L 247.128906 381.273438 L 245 384.792969 C 243.570312 387.164062 242.875 388.730469 242.875 389.578125 C 242.875 390.816406 242.914062 390.792969 244.265625 388.53125 C 245.027344 387.253906 245.988281 385.855469 246.394531 385.417969 Z M 247.5 373.667969 L 247.5 371.546875 L 245.613281 374.632812 C 243.84375 377.523438 243.707031 377.929688 243.496094 381 L 243.277344 384.28125 L 245.371094 380.035156 C 247.125 376.488281 247.472656 375.441406 247.484375 373.667969 Z M 247.277344 369.070312 C 247.621094 368.683594 247.875 367.292969 247.957031 365.300781 C 248.035156 363.566406 248.046875 362.191406 247.996094 362.25 C 247.9375 362.3125 247.09375 363.902344 246.113281 365.789062 C 244.574219 368.773438 244.3125 369.609375 244.167969 372.121094 L 244.003906 375.019531 L 245.371094 372.351562 C 246.125 370.882812 246.984375 369.40625 247.285156 369.070312 Z M 269.1875 345.210938 C 269.898438 343.054688 273.195312 339.976562 275.855469 338.980469 C 277.078125 338.523438 278.601562 338.148438 279.238281 338.148438 C 280.734375 338.148438 282.898438 339.058594 283.355469 339.875 C 283.691406 340.46875 283.753906 340.46875 284.246094 339.875 C 284.707031 339.324219 284.6875 339.070312 284.125 338.082031 C 283.273438 336.601562 283.289062 336.222656 284.210938 336.222656 C 285.03125 336.222656 286.167969 337.574219 286.167969 338.550781 C 286.167969 338.886719 285.757812 339.714844 285.261719 340.386719 C 284.59375 341.292969 284.335938 342.191406 284.28125 343.800781 C 284.242188 345 284.113281 346.148438 283.992188 346.34375 C 283.867188 346.546875 284.339844 346.644531 285.066406 346.578125 C 286.066406 346.480469 286.390625 346.257812 286.484375 345.585938 C 286.554688 345.105469 286.875 344.714844 287.203125 344.714844 C 287.644531 344.714844 287.738281 344.964844 287.554688 345.679688 C 287.324219 346.609375 287.386719 346.644531 289.097656 346.644531 L 290.886719 346.644531 L 290.066406 345.261719 C 289.613281 344.496094 288.640625 341.847656 287.898438 339.371094 C 285.898438 332.714844 284.390625 328.710938 284.078125 329.214844 C 283.6875 329.847656 283.074219 329.765625 283.074219 329.082031 C 283.074219 328.277344 282.984375 328.320312 281.289062 329.882812 C 279.332031 331.691406 276.691406 333.199219 270.304688 336.167969 L 265.070312 338.605469 L 264.683594 340.253906 L 264.300781 341.90625 L 265.28125 341.46875 C 267.113281 340.648438 269.734375 339.203125 272.101562 337.710938 C 274.792969 336.015625 276.027344 335.734375 274.566406 337.148438 C 273.011719 338.65625 268.527344 341.480469 265.847656 342.644531 C 264.484375 343.242188 263.363281 343.953125 263.363281 344.222656 C 263.363281 344.496094 263.164062 344.714844 262.921875 344.714844 C 262.46875 344.714844 262.648438 341.753906 263.183594 340.375 C 263.460938 339.664062 263.097656 339.507812 262.332031 340 C 262.078125 340.15625 261.351562 341.714844 260.714844 343.464844 L 259.550781 346.644531 L 268.710938 346.644531 L 269.1875 345.214844 Z M 285.394531 343.769531 C 285.394531 342.738281 285.972656 342.148438 286.363281 342.777344 C 286.675781 343.289062 286.230469 344.710938 285.753906 344.710938 C 285.558594 344.710938 285.394531 344.289062 285.394531 343.769531 Z M 281.335938 334.15625 C 280.699219 333.914062 280.074219 333.574219 279.945312 333.398438 C 279.8125 333.21875 279.433594 333.347656 279.101562 333.683594 C 278.445312 334.339844 277.664062 334.488281 277.664062 333.960938 C 277.664062 333.148438 279.125 332.386719 280.476562 332.488281 C 281.921875 332.605469 283.609375 333.738281 283.238281 334.339844 C 282.992188 334.734375 282.84375 334.726562 281.335938 334.15625 Z M 283.074219 345.335938 C 283.074219 343.609375 282.136719 341.433594 281.0625 340.6875 C 279.289062 339.441406 275.925781 340.144531 273.429688 342.277344 C 272.058594 343.449219 270.707031 345.515625 270.707031 346.4375 C 270.707031 346.550781 273.488281 346.640625 276.890625 346.640625 L 283.074219 346.640625 Z M 308.769531 345.964844 C 308.617188 345.597656 308.007812 343.644531 307.429688 341.625 C 306.847656 339.605469 305.828125 336.566406 305.164062 334.867188 C 304.5 333.167969 303.953125 331.402344 303.949219 330.941406 C 303.949219 329.59375 303.53125 328.882812 302.746094 328.882812 C 301.851562 328.882812 301.851562 328.804688 302.746094 331.5 C 303.15625 332.71875 303.875 336.226562 304.335938 339.308594 C 304.800781 342.386719 305.253906 345.023438 305.335938 345.167969 C 305.425781 345.316406 305.335938 345.535156 305.132812 345.65625 C 304.578125 346 304.460938 345.65625 302.757812 338.875 C 300.496094 329.808594 300.46875 329.765625 299.167969 330.265625 C 298.664062 330.457031 298.6875 330.773438 299.347656 332.679688 C 300.414062 335.753906 302.390625 343.460938 302.390625 344.53125 C 302.390625 346.484375 302.660156 346.640625 305.953125 346.640625 C 308.75 346.640625 309.019531 346.578125 308.757812 345.964844 Z M 323.03125 344.851562 C 323.414062 342.050781 323.351562 341.625 322.546875 341.625 C 321.496094 341.625 321.058594 343.550781 321.960938 344.207031 C 322.523438 344.617188 322.558594 344.863281 322.191406 345.667969 C 321.835938 346.445312 321.851562 346.640625 322.269531 346.640625 C 322.589844 346.640625 322.878906 345.972656 323.03125 344.851562 Z M 328.074219 344.421875 C 328.203125 343.203125 328.566406 338.710938 328.886719 334.433594 C 329.203125 330.164062 329.621094 325.851562 329.804688 324.847656 C 330.460938 321.332031 333.757812 319.234375 338.617188 319.234375 C 341.039062 319.234375 341.859375 318.761719 340.1875 318.320312 C 339.710938 318.199219 337.578125 318.148438 335.453125 318.210938 C 331.613281 318.324219 328.453125 319.207031 327.742188 320.359375 C 327.378906 320.945312 326.871094 326.628906 326.375 335.640625 C 326.152344 339.671875 325.867188 343.800781 325.734375 344.808594 L 325.496094 346.640625 L 326.667969 346.640625 C 327.8125 346.640625 327.84375 346.585938 328.074219 344.421875 Z M 337.128906 343.855469 C 337.355469 342.324219 337.496094 341.023438 337.441406 340.972656 C 337.199219 340.730469 332 340.136719 331.710938 340.3125 C 331.539062 340.421875 331.394531 341.890625 331.394531 343.578125 L 331.394531 346.640625 L 336.714844 346.640625 Z M 350.722656 346.023438 C 350.722656 345.6875 350.257812 344.585938 349.695312 343.578125 L 348.664062 341.75 L 346.726562 342.101562 C 345.65625 342.296875 343.699219 342.398438 342.371094 342.332031 C 339.980469 342.203125 339.953125 342.214844 339.730469 343.3125 C 339.613281 343.925781 339.511719 344.921875 339.511719 345.53125 L 339.511719 346.640625 L 345.117188 346.640625 C 350 346.640625 350.722656 346.5625 350.722656 346.023438 Z M 367.191406 346.023438 C 367.0625 345.6875 366.957031 345.167969 366.957031 344.867188 C 366.957031 344.566406 366.78125 344.320312 366.570312 344.320312 C 366.355469 344.320312 366.183594 344.578125 366.183594 344.898438 C 366.183594 345.933594 365.160156 345.507812 364.554688 344.222656 C 364.230469 343.53125 363.472656 341.429688 362.878906 339.550781 C 362.28125 337.671875 361.5625 336.046875 361.277344 335.9375 C 360.585938 335.671875 355.671875 336.808594 353.652344 337.703125 L 352.007812 338.429688 L 353.132812 341.910156 C 354.125 344.984375 354.347656 345.363281 355.046875 345.183594 C 355.707031 345.007812 355.792969 345.109375 355.574219 345.804688 C 355.308594 346.628906 355.34375 346.632812 361.367188 346.632812 C 366.734375 346.632812 367.398438 346.566406 367.191406 346.023438 Z M 371.152344 341.609375 L 371.289062 338.527344 L 368.394531 338.527344 L 368.640625 340.902344 C 368.777344 342.207031 368.890625 344.066406 368.890625 345.039062 L 368.890625 346.808594 L 369.949219 345.75 C 370.894531 344.804688 371.027344 344.359375 371.152344 341.609375 Z M 374.8125 338.816406 C 375.179688 334.515625 375.453125 330.042969 375.414062 328.875 C 375.367188 327.425781 375.253906 328.035156 375.042969 330.804688 C 374.878906 333.035156 374.382812 337.03125 373.941406 339.6875 C 373.007812 345.316406 372.953125 346.632812 373.640625 346.632812 C 374.011719 346.632812 374.316406 344.609375 374.8125 338.816406 Z M 453.9375 346.054688 C 456.355469 345.734375 458.652344 345.574219 459.03125 345.691406 C 459.550781 345.859375 459.726562 345.691406 459.726562 345.109375 C 459.726562 344 462.089844 341.527344 468.230469 336.210938 C 471.105469 333.726562 474.203125 330.871094 475.128906 329.867188 C 477.140625 327.683594 478.71875 324.402344 478.929688 321.96875 L 479.085938 320.1875 L 478.5625 321.558594 C 477.355469 324.730469 471.710938 331.183594 471.710938 329.398438 C 471.710938 329.261719 472.300781 328.429688 473.023438 327.542969 C 474.863281 325.304688 476.714844 321.601562 476.796875 319.996094 C 476.886719 318.296875 477.375 317.292969 478.105469 317.292969 C 478.90625 317.292969 478.804688 316.785156 477.800781 315.839844 C 475.832031 313.996094 470.605469 313.84375 466.871094 315.523438 C 464.074219 316.785156 453.675781 324.984375 449.550781 329.175781 C 447.742188 331.019531 447.421875 331.519531 447.933594 331.71875 C 448.375 331.886719 448.492188 332.207031 448.316406 332.765625 C 447.714844 334.65625 449.796875 336.945312 452.671875 337.550781 C 454.34375 337.90625 454.289062 337.367188 452.453125 335.335938 C 451.640625 334.433594 450.570312 333.113281 450.066406 332.394531 L 449.160156 331.078125 L 450.664062 331.363281 C 452.75 331.757812 454.003906 332.46875 455.417969 334.082031 C 457.007812 335.886719 457.035156 337.417969 455.507812 338.945312 C 454.644531 339.800781 454.023438 340.066406 452.898438 340.0625 C 449.046875 340.023438 445.351562 336.535156 446.058594 333.578125 C 446.269531 332.710938 445.816406 333.011719 443.257812 335.449219 C 441.578125 337.050781 439.46875 338.980469 438.566406 339.730469 L 436.929688 341.101562 L 437.929688 342.035156 C 439.292969 343.304688 440.019531 344.804688 439.753906 345.804688 C 439.539062 346.621094 439.609375 346.632812 444.535156 346.632812 C 447.285156 346.632812 451.515625 346.371094 453.9375 346.054688 Z M 463.207031 339.152344 C 463.207031 338.859375 463.472656 338.398438 463.796875 338.128906 C 464.125 337.859375 465.460938 336.234375 466.765625 334.511719 C 469.382812 331.066406 469.914062 330.5625 470.089844 331.367188 C 470.265625 332.160156 468.398438 334.933594 465.980469 337.464844 C 463.820312 339.726562 463.207031 340.101562 463.207031 339.152344 Z M 462.820312 329.222656 C 459.605469 327.296875 457.449219 324.449219 458.179688 323.082031 C 458.800781 321.933594 459.515625 322.144531 460.609375 323.800781 C 461.882812 325.726562 465.269531 328.054688 465.464844 327.136719 C 465.640625 326.277344 462.21875 321.261719 461.242188 320.953125 C 460.632812 320.757812 460.554688 320.585938 460.898438 320.179688 C 461.261719 319.738281 461.53125 319.734375 462.5625 320.179688 C 463.234375 320.464844 464.238281 320.871094 464.789062 321.085938 C 466.277344 321.664062 468.230469 324.824219 468.230469 326.652344 C 468.230469 329.625 465.585938 330.882812 462.820312 329.230469 Z M 437.695312 345.957031 C 437.695312 345.800781 437.191406 344.917969 436.582031 344 L 435.472656 342.328125 L 433.390625 344.148438 C 432.25 345.152344 431.242188 346.03125 431.152344 346.109375 C 431.066406 346.1875 432.503906 346.25 434.34375 346.25 C 436.1875 346.25 437.695312 346.117188 437.695312 345.957031 Z M 258.875 343.773438 C 259.003906 343.265625 259.222656 342.550781 259.363281 342.1875 C 259.578125 341.625 259.4375 341.566406 258.394531 341.796875 C 257.535156 341.980469 257.175781 341.921875 257.175781 341.582031 C 257.175781 341.320312 257.0625 341.214844 256.921875 341.355469 C 256.628906 341.652344 257.929688 344.703125 258.351562 344.703125 C 258.511719 344.703125 258.746094 344.289062 258.875 343.773438 Z M 345.484375 339.917969 C 347.902344 339.878906 349.550781 339.753906 349.144531 339.601562 C 348.289062 339.285156 348.257812 339.136719 348.804688 338.113281 C 349.253906 337.273438 352.625 335.484375 355.589844 334.515625 L 357.550781 333.875 L 357.253906 332.050781 C 357.089844 331.050781 356.941406 328.878906 356.929688 327.234375 L 356.890625 324.242188 L 358.257812 324.242188 C 359.113281 324.242188 359.707031 324.460938 359.84375 324.824219 C 359.964844 325.144531 360.296875 325.402344 360.582031 325.402344 C 360.863281 325.402344 361.203125 325.574219 361.339844 325.792969 C 361.710938 326.390625 361.160156 327.71875 360.535156 327.71875 C 360.230469 327.71875 359.984375 327.890625 359.984375 328.105469 C 359.984375 328.316406 360.835938 328.492188 361.886719 328.492188 C 362.929688 328.492188 364.0625 328.59375 364.394531 328.722656 C 365.144531 329.011719 364.816406 329.648438 363.917969 329.648438 C 363.558594 329.648438 362.800781 330.410156 362.234375 331.347656 L 361.203125 333.050781 L 362.042969 333.277344 C 362.589844 333.421875 363.019531 333.277344 363.269531 332.886719 C 363.480469 332.546875 364.105469 331.546875 364.652344 330.664062 C 365.390625 329.472656 365.929688 329.03125 366.726562 328.964844 C 367.714844 328.882812 367.789062 328.964844 367.632812 330.019531 C 367.527344 330.730469 367.671875 331.234375 367.960938 331.355469 C 368.632812 331.609375 368.945312 329.738281 368.800781 326.367188 L 368.679688 323.664062 L 364.042969 323.394531 C 361.492188 323.242188 358.414062 323.011719 357.207031 322.878906 C 355.074219 322.636719 354.996094 322.660156 354.433594 323.75 C 353.503906 325.546875 350.804688 328 348.542969 329.105469 C 345.667969 330.507812 343.0625 330.304688 341.296875 328.535156 C 340.164062 327.40625 340.074219 327.113281 340.027344 324.527344 C 339.96875 321.316406 339.847656 321.253906 336.421875 322.726562 L 334.558594 323.53125 L 334.304688 328.804688 C 333.984375 335.402344 333.832031 336.210938 332.9375 336.210938 C 332.550781 336.210938 332.144531 336.449219 332.03125 336.742188 C 331.875 337.148438 332.601562 337.375 335.140625 337.703125 C 338.871094 338.183594 340.449219 338.949219 340.140625 340.125 C 339.980469 340.753906 340.042969 340.808594 340.507812 340.421875 C 340.863281 340.125 342.660156 339.945312 345.46875 339.917969 Z M 323.621094 333.210938 C 323.664062 330.792969 323.664062 330.789062 322.664062 331.042969 C 321.777344 331.265625 321.679688 331.1875 321.792969 330.375 C 321.886719 329.722656 322.207031 329.421875 322.90625 329.339844 C 323.851562 329.230469 323.902344 329.089844 324.316406 325.285156 C 324.554688 323.121094 324.859375 321.066406 325 320.722656 C 325.210938 320.207031 325.058594 320.132812 324.171875 320.300781 C 323.570312 320.417969 323.300781 320.582031 323.566406 320.671875 C 324.472656 320.972656 324.054688 321.839844 322.699219 322.480469 C 321.382812 323.105469 321.34375 323.1875 321.34375 325.332031 C 321.34375 328.027344 320.492188 329.597656 319.472656 328.796875 C 318.890625 328.34375 318.882812 328.367188 319.390625 329.070312 C 319.699219 329.492188 320.285156 330.21875 320.691406 330.683594 C 321.09375 331.140625 321.316406 331.695312 321.191406 331.902344 C 321.058594 332.109375 321.121094 332.34375 321.324219 332.414062 C 321.53125 332.484375 321.816406 334.023438 321.957031 335.824219 C 322.300781 340.066406 322.984375 341.113281 323.332031 337.914062 C 323.464844 336.660156 323.597656 334.542969 323.621094 333.210938 Z M 251.847656 336.886719 C 251.683594 334.511719 251.21875 334.117188 250.078125 335.386719 C 249.484375 336.039062 249.480469 336.144531 250.039062 336.609375 C 250.378906 336.890625 250.914062 337.628906 251.234375 338.246094 C 251.558594 338.863281 251.859375 339.3125 251.90625 339.238281 C 251.953125 339.164062 251.90625 338.105469 251.84375 336.886719 Z M 367.398438 335.828125 C 367.8125 335.828125 368.09375 335.394531 368.210938 334.570312 C 368.511719 332.570312 368.113281 332.117188 367.25 333.472656 C 366.832031 334.128906 366.339844 334.667969 366.144531 334.667969 C 365.671875 334.667969 365.699219 333.613281 366.183594 333.316406 C 366.394531 333.183594 366.554688 332.351562 366.539062 331.460938 C 366.539062 330.570312 366.410156 330.101562 366.292969 330.421875 C 366.167969 330.742188 365.558594 331.71875 364.929688 332.597656 C 363.816406 334.167969 363.804688 334.21875 364.472656 335.234375 C 364.964844 335.988281 365.367188 336.210938 365.957031 336.050781 C 366.398438 335.933594 367.046875 335.832031 367.398438 335.828125 Z M 371.8125 334.878906 C 372.152344 334.359375 372.375 333.667969 372.300781 333.339844 C 372.222656 332.960938 371.851562 333.300781 371.292969 334.285156 C 370.347656 335.941406 370.785156 336.445312 371.8125 334.878906 Z M 289.792969 333.015625 C 289.65625 332.023438 289.980469 328.601562 290.597656 324.5 C 291.675781 317.339844 291.648438 316.042969 290.367188 314.417969 C 289.230469 312.976562 288.015625 313.148438 286.78125 314.929688 C 285.480469 316.808594 283.929688 318.273438 283.597656 317.945312 C 283.460938 317.808594 283.796875 316.824219 284.351562 315.757812 C 284.90625 314.691406 285.226562 313.820312 285.066406 313.820312 C 284.820312 313.820312 281.253906 315.945312 280.800781 316.363281 C 280.71875 316.441406 281.242188 317.160156 281.96875 317.964844 C 284.242188 320.476562 286.023438 323.859375 287.964844 329.359375 C 289 332.277344 289.878906 334.664062 289.929688 334.667969 C 289.980469 334.667969 289.929688 333.921875 289.792969 333.015625 Z M 286.890625 322.023438 C 287.457031 320.964844 290.449219 317.679688 290.839844 317.679688 C 291.578125 317.679688 291.132812 318.574219 289.382812 320.601562 C 287.625 322.632812 286.09375 323.507812 286.890625 322.023438 Z M 285.007812 319.964844 C 285.007812 319.253906 288.503906 314.976562 289.089844 314.976562 C 289.945312 314.976562 289.800781 315.269531 287.648438 317.921875 C 285.71875 320.292969 285.007812 320.84375 285.007812 319.964844 Z M 372.359375 329.007812 C 372.359375 328.402344 372.242188 328.441406 371.597656 329.261719 C 371.179688 329.792969 370.832031 330.554688 370.828125 330.953125 C 370.828125 331.582031 370.929688 331.542969 371.597656 330.703125 C 372.019531 330.160156 372.363281 329.402344 372.359375 329.007812 Z M 360.910156 330.613281 C 361.035156 330.292969 360.964844 330.035156 360.761719 330.035156 C 360.554688 330.035156 360.386719 330.292969 360.386719 330.613281 C 360.386719 330.933594 360.453125 331.191406 360.535156 331.191406 C 360.621094 331.191406 360.792969 330.933594 360.910156 330.613281 Z M 262.976562 328.105469 C 264.796875 325.59375 265.914062 325.050781 265.570312 326.84375 C 265.375 327.84375 265.394531 327.855469 265.925781 327.132812 C 267.714844 324.683594 268.773438 324 268.773438 325.289062 C 268.773438 325.761719 269.09375 325.566406 269.882812 324.621094 C 270.820312 323.503906 271.085938 323.371094 271.589844 323.789062 C 272.023438 324.152344 272.257812 324.164062 272.453125 323.84375 C 272.605469 323.601562 273.082031 323.5 273.519531 323.609375 C 274.226562 323.796875 274.25 323.757812 273.726562 323.230469 C 273.203125 322.710938 272.804688 322.710938 270.089844 323.230469 C 268.40625 323.542969 265.890625 323.917969 264.496094 324.066406 C 262.125 324.3125 261.929688 324.40625 261.519531 325.496094 C 261.097656 326.601562 261.113281 326.628906 261.765625 326.039062 C 263.289062 324.660156 263.394531 325.773438 262 328.511719 C 261.46875 329.566406 261.089844 330.429688 261.164062 330.429688 C 261.238281 330.429688 262.050781 329.390625 262.976562 328.117188 Z M 318.640625 327.976562 C 318.640625 327.695312 318.207031 327.230469 317.671875 326.945312 C 317.140625 326.660156 316.707031 326.195312 316.707031 325.914062 C 316.707031 325.277344 316.074219 325.242188 315.691406 325.863281 C 315.539062 326.117188 315.625 326.394531 315.890625 326.484375 C 316.152344 326.566406 316.835938 327.050781 317.410156 327.550781 C 318.636719 328.632812 318.640625 328.632812 318.640625 327.976562 Z M 332.488281 325.980469 C 332.488281 325.359375 332.414062 325.398438 332.167969 326.171875 C 331.742188 327.492188 331.742188 328.507812 332.167969 327.523438 C 332.351562 327.101562 332.496094 326.40625 332.488281 325.980469 Z M 349.222656 325.804688 C 352.246094 323.804688 353.550781 320.136719 352.675781 316.082031 C 352.183594 313.773438 351.015625 312.277344 349.714844 312.277344 C 349.195312 312.277344 348.074219 313.019531 346.941406 314.125 C 344.773438 316.234375 343.425781 319.265625 343.09375 322.761719 C 342.910156 324.742188 342.984375 325.046875 343.886719 325.945312 C 345.253906 327.3125 347.015625 327.261719 349.222656 325.804688 Z M 371.605469 324.257812 C 370.851562 322.449219 370.613281 322.578125 370.765625 324.707031 C 370.886719 326.453125 370.960938 326.585938 371.5 326.050781 C 372.003906 325.539062 372.019531 325.273438 371.605469 324.257812 Z M 281.144531 325.015625 C 281.550781 325.015625 282.035156 325.296875 282.230469 325.644531 C 282.875 326.796875 283.015625 325.605469 282.394531 324.238281 C 281.828125 322.992188 281.769531 322.957031 281.621094 323.800781 C 281.507812 324.472656 281.273438 324.652344 280.726562 324.511719 C 280.316406 324.402344 279.984375 324.460938 279.984375 324.632812 C 279.984375 324.8125 279.882812 325.269531 279.761719 325.660156 C 279.554688 326.320312 279.566406 326.320312 279.972656 325.699219 C 280.210938 325.328125 280.738281 325.023438 281.144531 325.023438 Z M 276.945312 323.53125 C 276.308594 323.371094 275.902344 323.773438 275.554688 324.921875 C 275.308594 325.742188 275.355469 325.730469 276.382812 324.730469 C 277.132812 323.996094 277.308594 323.621094 276.945312 323.53125 Z M 316.707031 324.242188 C 316.707031 324.03125 316.53125 323.859375 316.320312 323.859375 C 316.105469 323.859375 315.933594 324.03125 315.933594 324.242188 C 315.933594 324.453125 316.105469 324.628906 316.320312 324.628906 C 316.53125 324.628906 316.707031 324.453125 316.707031 324.242188 Z M 332.667969 323.859375 C 332.777344 323.433594 332.710938 323.179688 332.519531 323.300781 C 332.328125 323.421875 332.167969 323.769531 332.167969 324.074219 C 332.167969 324.871094 332.429688 324.757812 332.667969 323.859375 Z M 318.128906 320.742188 C 318.859375 319.933594 319.957031 319.167969 320.566406 319.03125 C 321.179688 318.902344 321.886719 318.542969 322.136719 318.238281 C 322.390625 317.929688 323.003906 317.679688 323.492188 317.679688 C 323.988281 317.679688 324.5 317.507812 324.628906 317.292969 C 324.953125 316.765625 322.328125 316.800781 320.597656 317.34375 C 317.105469 318.445312 315.933594 318.929688 315.933594 319.277344 C 315.933594 319.488281 316.125 319.539062 316.367188 319.390625 C 316.976562 319.011719 319.410156 318.492188 319.410156 318.738281 C 319.410156 319.132812 317.492188 320.710938 316.71875 320.957031 C 316.277344 321.097656 315.933594 321.539062 315.933594 321.976562 C 315.933594 322.925781 316.382812 322.671875 318.128906 320.742188 Z M 319.558594 322.101562 C 319.691406 321.757812 319.628906 321.601562 319.40625 321.738281 C 319.195312 321.867188 319.023438 322.136719 319.023438 322.335938 C 319.023438 322.890625 319.304688 322.769531 319.558594 322.101562 Z M 271.867188 320.785156 C 275.789062 319.988281 277.664062 319.988281 277.664062 320.785156 C 277.664062 320.992188 278.320312 321.15625 279.113281 321.152344 L 280.5625 321.152344 L 278.171875 318.878906 C 275.726562 316.5625 273.066406 315.085938 268.339844 313.429688 L 265.777344 312.535156 L 264.640625 313.492188 C 264.015625 314.015625 262.550781 314.941406 261.390625 315.554688 C 259.472656 316.554688 259.179688 316.886719 258.261719 319.089844 C 257.351562 321.265625 257.308594 321.539062 257.886719 321.714844 C 259.316406 322.148438 268.03125 321.582031 271.867188 320.808594 Z M 371.519531 319.863281 L 370.089844 318.601562 L 363.207031 318.769531 C 356.726562 318.921875 355.1875 319.203125 356.050781 320.070312 C 356.203125 320.222656 359.746094 320.375 363.925781 320.417969 C 368.105469 320.457031 371.757812 320.632812 372.042969 320.816406 C 373.128906 321.503906 372.894531 321.074219 371.519531 319.863281 Z M 327.140625 318.078125 C 327.140625 317.875 326.882812 317.804688 326.5625 317.925781 C 326.246094 318.046875 325.984375 318.21875 325.984375 318.300781 C 325.984375 318.382812 326.246094 318.453125 326.5625 318.453125 C 326.882812 318.453125 327.140625 318.28125 327.140625 318.078125 Z M 330.527344 316.523438 C 332.171875 315.898438 333.503906 315.75 337.484375 315.746094 L 342.410156 315.746094 L 344.816406 313.085938 C 346.199219 311.558594 347.957031 310.074219 348.957031 309.589844 C 349.90625 309.128906 350.792969 308.425781 350.917969 308.027344 C 351.199219 307.144531 361.667969 296.792969 368.890625 290.253906 C 375.667969 284.125 381.9375 278.816406 392.554688 270.234375 C 397.289062 266.40625 401.582031 262.914062 402.09375 262.476562 L 403.019531 261.683594 L 401.347656 257.738281 C 400.429688 255.570312 396.691406 247.886719 393.050781 240.664062 C 389.410156 233.445312 384.453125 223.332031 382.03125 218.191406 C 379.613281 213.042969 377.566406 208.898438 377.488281 208.976562 C 377.28125 209.183594 378.601562 214.613281 381.445312 225.222656 C 384.339844 236.03125 386.15625 244.371094 387.828125 254.503906 C 388.488281 258.5 389.222656 262.085938 389.457031 262.464844 C 390.421875 264.003906 386.894531 267.6875 378.601562 273.808594 C 375.976562 275.75 371.417969 279.121094 368.472656 281.296875 C 365.53125 283.476562 363.066406 285.257812 363.003906 285.257812 C 362.582031 285.257812 363.28125 282.117188 363.804688 281.652344 C 364.160156 281.332031 368.558594 278.066406 373.582031 274.382812 C 378.605469 270.703125 383.554688 266.917969 384.574219 265.972656 C 386.644531 264.0625 386.800781 263.1875 385.703125 259.777344 C 385.394531 258.820312 384.609375 255.085938 383.953125 251.476562 C 382.421875 243.050781 380.632812 235.175781 378.191406 226.089844 C 376.265625 218.917969 375.171875 214.339844 373.515625 206.5 C 373.046875 204.273438 372.5625 202.28125 372.441406 202.074219 C 372.160156 201.597656 371.804688 202.902344 370.609375 208.816406 C 367.8125 222.675781 366.023438 236.34375 364.460938 255.917969 C 363.917969 262.660156 362.785156 274.351562 361.210938 289.417969 L 360.511719 296.089844 L 359.214844 297.429688 C 358.5 298.164062 357.75 298.769531 357.546875 298.769531 C 357.113281 298.769531 357.414062 293.480469 358.257812 286.285156 C 358.949219 280.402344 360.183594 267.636719 360.976562 258.230469 C 362.570312 239.261719 364.292969 225.765625 366.605469 214.222656 C 367.222656 211.140625 367.726562 208.398438 367.730469 208.121094 C 367.730469 207.757812 367.355469 207.695312 366.28125 207.90625 C 365.484375 208.0625 364.117188 208.195312 363.238281 208.210938 C 361.738281 208.25 361.292969 208.566406 355.367188 214.027344 C 351.914062 217.210938 348.953125 219.910156 348.785156 220.011719 C 348.464844 220.214844 348.25 222.160156 348.34375 224.007812 C 348.429688 225.652344 350.546875 227.546875 353.132812 228.300781 C 355.921875 229.109375 356.511719 229.769531 355.496094 230.929688 C 355.082031 231.402344 354.261719 233.351562 353.671875 235.261719 C 352.265625 239.808594 347.726562 252.320312 344.890625 259.4375 C 341.625 267.652344 336.28125 284.164062 334.722656 290.851562 C 333.089844 297.875 331.574219 306.050781 330.902344 311.480469 L 330.402344 315.507812 L 328.121094 316.023438 C 325.597656 316.597656 324.675781 317.113281 326.675781 316.832031 C 327.378906 316.734375 328.039062 316.792969 328.148438 316.976562 C 328.398438 317.378906 328.148438 317.425781 330.527344 316.527344 Z M 260.667969 313.429688 C 262.789062 312.355469 263.492188 311.480469 262.636719 310.953125 C 262.140625 310.648438 257.5625 313.457031 257.5625 314.070312 C 257.5625 314.835938 258.097656 314.722656 260.667969 313.429688 Z M 257.546875 311.019531 C 257.546875 310.753906 257.183594 309.929688 256.753906 309.1875 C 256.324219 308.445312 256.078125 308.183594 256.214844 308.609375 C 256.351562 309.03125 256.554688 309.859375 256.675781 310.441406 C 256.882812 311.492188 257.578125 311.949219 257.546875 311.019531 Z M 260.269531 309.835938 C 260.269531 309.78125 259.921875 309.054688 259.496094 308.222656 C 259.070312 307.386719 258.722656 306.398438 258.722656 306.019531 C 258.722656 305.199219 257.632812 305.085938 257.332031 305.871094 C 257.152344 306.339844 258.011719 309.511719 258.574219 310.410156 C 258.734375 310.675781 260.269531 310.15625 260.269531 309.835938 Z M 262.394531 308.269531 C 263.109375 307.75 263.097656 307.683594 262.1875 305.757812 C 261.199219 303.6875 261.128906 303.617188 260.390625 304.085938 C 260.046875 304.308594 260.09375 304.914062 260.582031 306.589844 C 260.941406 307.804688 261.332031 308.800781 261.453125 308.800781 C 261.574219 308.800781 261.996094 308.5625 262.394531 308.269531 Z M 441.945312 225.210938 C 441.945312 225.121094 441.128906 223.789062 440.125 222.238281 C 438.054688 219.039062 436.6875 215.859375 435.339844 211.128906 C 434.492188 208.144531 434.417969 207.183594 434.460938 200.511719 C 434.523438 191.070312 435.527344 182.988281 439.050781 163.453125 C 443.128906 140.878906 443.6875 135.484375 443.683594 118.863281 C 443.683594 110.964844 443.484375 104.277344 443.1875 101.683594 C 441.9375 90.863281 438.351562 81.808594 433.703125 77.746094 C 430.980469 75.363281 428.433594 74.464844 424.441406 74.472656 C 421.089844 74.472656 420.144531 74.761719 420.472656 75.65625 C 420.761719 76.4375 419.773438 79.980469 419.21875 80.167969 C 418.949219 80.257812 418.753906 79.964844 418.753906 79.472656 C 418.753906 77.824219 416.335938 74.058594 413.757812 71.695312 C 411.949219 70.035156 409.996094 68.773438 406.964844 67.296875 C 399.175781 63.507812 392.316406 62.054688 382.03125 62.015625 C 373.226562 61.976562 368.652344 62.761719 361.160156 65.582031 C 351.132812 69.359375 348.5625 70.785156 344.511719 74.832031 C 341.652344 77.6875 339.566406 81.074219 338.953125 83.847656 C 338.71875 84.894531 338.789062 84.871094 341.335938 82.917969 C 342.777344 81.808594 345.578125 80.128906 347.558594 79.191406 L 351.160156 77.480469 L 353.324219 79.363281 C 354.507812 80.402344 355.933594 82.113281 356.484375 83.164062 C 357.035156 84.222656 357.523438 85.148438 357.566406 85.230469 C 357.613281 85.308594 359.03125 84.660156 360.722656 83.78125 C 362.40625 82.90625 364.222656 82.1875 364.757812 82.1875 C 366.875 82.1875 370.785156 87.972656 371.703125 92.46875 C 372.171875 94.777344 372.183594 94.789062 373.296875 94.492188 C 381.449219 92.3125 388.96875 95.988281 391.140625 103.207031 C 392.144531 106.5625 392.5 112.34375 392.066406 118.261719 C 391.605469 124.5 389.921875 139.984375 389.335938 143.324219 C 387.285156 155.050781 386.578125 169.988281 387.59375 180.246094 C 388.808594 192.484375 391.289062 203.042969 394.148438 208.15625 C 399.746094 218.152344 412.667969 224.5625 428.804688 225.351562 C 433.929688 225.601562 441.945312 225.511719 441.945312 225.210938 Z M 368.367188 204.855469 C 368.839844 204.363281 370.925781 197.59375 370.683594 197.347656 C 370.609375 197.273438 370.085938 197.917969 369.515625 198.773438 C 368.945312 199.628906 367.53125 201.449219 366.367188 202.820312 C 365.203125 204.191406 364.25 205.472656 364.25 205.664062 C 364.25 206.144531 367.789062 205.445312 368.367188 204.855469 Z M 375.363281 178.410156 C 375.871094 178.304688 376.234375 178.410156 376.234375 178.671875 C 376.234375 178.980469 377.320312 179.082031 379.882812 179.003906 L 383.535156 178.894531 L 383.710938 169.242188 C 383.875 160.152344 384.636719 151.746094 385.894531 145.125 C 386.113281 143.96875 386.554688 140.839844 386.875 138.175781 C 389.675781 114.769531 389.765625 106.726562 387.289062 101.957031 C 385.839844 99.160156 382.175781 96.898438 378.578125 96.582031 C 375.84375 96.335938 372.253906 97 370.832031 98.007812 C 370.230469 98.4375 369.648438 98.789062 369.535156 98.789062 C 369.421875 98.789062 369.210938 97.789062 369.0625 96.570312 C 368.632812 93.0625 367.523438 89.980469 365.722656 87.332031 C 364.8125 85.988281 363.90625 84.890625 363.714844 84.890625 C 363.519531 84.890625 361.925781 85.667969 360.171875 86.625 C 358.417969 87.585938 356.796875 88.363281 356.574219 88.363281 C 356.351562 88.363281 355.480469 87.191406 354.640625 85.757812 C 353.800781 84.324219 352.421875 82.53125 351.574219 81.765625 L 350.027344 80.382812 L 347.792969 81.496094 C 338.445312 86.144531 330.238281 96.882812 326.03125 109.984375 C 323.867188 116.707031 323.476562 119.6875 323.472656 129.480469 C 323.472656 140.113281 323.980469 142.78125 327.324219 149.550781 C 330.476562 155.949219 330.457031 155.929688 334.921875 156.199219 C 341.832031 156.605469 348.625 155.273438 356.929688 151.878906 C 365.042969 148.554688 371.734375 144.890625 377.09375 140.816406 C 380.359375 138.339844 381.257812 138.042969 381.257812 139.460938 C 381.257812 141.4375 374.671875 146.296875 366.070312 150.675781 C 354.246094 156.691406 345.371094 159.394531 337.402344 159.398438 L 333.9375 159.398438 L 335.660156 161.175781 C 340.292969 165.941406 349.570312 171.964844 356.589844 174.757812 C 362.976562 177.296875 372.054688 179.414062 373.914062 178.792969 C 374.234375 178.6875 374.886719 178.515625 375.363281 178.410156 Z M 338.945312 119.550781 C 336.105469 117.109375 337.578125 106.570312 341.003906 104.796875 C 343.34375 103.59375 345.113281 104.238281 346.425781 106.773438 C 347.058594 108.007812 346.953125 112.65625 346.238281 114.742188 C 345.449219 117.0625 342.808594 119.957031 341.214844 120.257812 C 340.304688 120.425781 339.769531 120.257812 338.945312 119.550781 Z M 354.484375 99.199219 C 354.347656 98.6875 353.882812 98.417969 352.984375 98.332031 C 351.773438 98.214844 351.6875 98.113281 351.6875 96.792969 C 351.6875 94.410156 348.472656 91.839844 345.492188 91.839844 C 344.265625 91.839844 344.113281 91.734375 344.21875 90.972656 C 344.496094 89.042969 347.449219 88.726562 350.535156 90.300781 C 351.367188 90.71875 352.488281 91.066406 353.027344 91.066406 C 354.21875 91.066406 358.710938 88.996094 359.875 87.910156 C 361.019531 86.84375 361.613281 87.273438 361.085938 88.792969 C 360.636719 90.078125 358.722656 91.636719 356.195312 92.777344 C 354.425781 93.570312 354.355469 93.691406 355.089844 94.695312 C 355.539062 95.304688 355.839844 95.335938 357.859375 94.960938 C 359.109375 94.730469 360.230469 94.644531 360.355469 94.769531 C 360.667969 95.089844 358.601562 96.671875 356.839844 97.464844 C 355.734375 97.964844 355.359375 98.363281 355.359375 99.039062 C 355.359375 100.132812 354.753906 100.246094 354.484375 99.199219 Z M 210.195312 475.140625 C 208.96875 471.453125 209.054688 469.359375 210.554688 466.40625 C 212.160156 463.238281 216.296875 460.25 217.589844 461.320312 C 218.535156 462.101562 218.191406 462.777344 216.453125 463.542969 C 213.933594 464.65625 212.777344 466.4375 212.09375 470.246094 C 211.734375 472.261719 211.613281 474.347656 211.765625 475.867188 C 212.109375 479.242188 211.460938 478.941406 210.195312 475.140625 Z M 243.382812 345.617188 C 243.234375 345.242188 243.382812 344.789062 243.765625 344.519531 C 244.257812 344.160156 244.292969 343.960938 243.925781 343.59375 C 243.59375 343.265625 243.417969 340.765625 243.332031 335.257812 L 243.203125 327.390625 L 244.105469 326.90625 C 245.242188 326.292969 251.207031 325.902344 250.859375 326.464844 C 250.726562 326.679688 249.515625 327.15625 248.175781 327.515625 L 245.734375 328.175781 L 245.734375 335.957031 C 245.773438 343.246094 245.804688 343.78125 246.527344 344.414062 C 247.292969 345.082031 247.292969 345.097656 246.566406 345.667969 C 245.554688 346.449219 243.6875 346.417969 243.378906 345.617188 Z M 293.972656 345.066406 C 294.066406 344.789062 294.371094 344.484375 294.648438 344.390625 C 294.9375 344.296875 295.082031 344.4375 294.984375 344.726562 C 294.894531 345.003906 294.585938 345.3125 294.308594 345.402344 C 294.019531 345.5 293.875 345.355469 293.972656 345.066406 Z M 383.578125 344.34375 C 383.578125 343.71875 384.347656 341.160156 385.285156 338.652344 L 386.996094 334.089844 L 388.339844 334.011719 C 390.089844 333.90625 412.234375 339.375 413.542969 340.234375 C 415 341.1875 414.535156 341.792969 412.253906 341.925781 C 410.246094 342.046875 404.3125 340.664062 393.292969 337.511719 C 390.664062 336.757812 388.386719 336.292969 388.230469 336.46875 C 388.078125 336.644531 387.546875 337.917969 387.054688 339.300781 C 385.875 342.601562 384.433594 345.476562 383.957031 345.476562 C 383.75 345.476562 383.578125 344.96875 383.578125 344.34375 Z M 298.421875 344.800781 C 298.332031 344.640625 298.136719 344 297.984375 343.375 C 297.835938 342.75 297.40625 341.796875 297.03125 341.253906 C 296.65625 340.707031 295.949219 339.222656 295.453125 337.949219 C 294.960938 336.675781 294.320312 335.441406 294.035156 335.203125 C 293.28125 334.582031 293.394531 333.597656 294.277344 333.125 C 294.878906 332.804688 295.195312 332.871094 295.761719 333.441406 C 296.835938 334.511719 299.3125 342.101562 299.3125 344.320312 C 299.3125 345.070312 298.742188 345.375 298.421875 344.800781 Z M 416.574219 342.96875 C 416.171875 341.917969 417.039062 341.394531 418.171875 342 C 419.382812 342.644531 419.238281 343.3125 417.851562 343.476562 C 417.167969 343.558594 416.734375 343.382812 416.574219 342.96875 Z M 427.070312 342.78125 C 426.503906 342.15625 426.464844 341.910156 426.863281 341.429688 C 427.132812 341.105469 427.652344 340.84375 428.019531 340.84375 C 428.839844 340.84375 429.964844 342.03125 429.964844 342.902344 C 429.964844 343.824219 427.941406 343.742188 427.070312 342.78125 Z M 292.382812 341.15625 C 291.738281 339.304688 292.5625 338.78125 293.3125 340.570312 C 294.03125 342.296875 294.035156 342.386719 293.359375 342.386719 C 293.0625 342.386719 292.625 341.835938 292.382812 341.15625 Z M 421.863281 341.648438 C 421.195312 340.398438 421.386719 339.480469 423.148438 335.507812 C 424.648438 332.132812 424.769531 331.660156 424.214844 331.3125 C 423.683594 330.976562 423.667969 330.824219 424.117188 330.285156 C 424.535156 329.777344 425.382812 329.644531 428.175781 329.636719 L 431.703125 329.636719 L 432.859375 327.8125 C 434.414062 325.363281 434.402344 325.414062 433.390625 325.414062 C 432.835938 325.414062 431.832031 326.125 430.664062 327.34375 C 428.589844 329.515625 427.417969 329.949219 428.917969 327.996094 C 429.796875 326.84375 429.832031 326.675781 429.257812 326.3125 C 428.699219 325.960938 428.6875 325.824219 429.164062 325.25 C 430.234375 323.960938 431.796875 323.484375 434.910156 323.484375 C 437.453125 323.484375 438.1875 323.628906 439.28125 324.363281 C 440.03125 324.867188 440.652344 325.644531 440.726562 326.167969 C 440.796875 326.679688 441.113281 327.488281 441.429688 327.964844 C 442.101562 328.988281 441.792969 332.074219 440.933594 332.933594 C 440.640625 333.226562 440.398438 333.628906 440.398438 333.832031 C 440.398438 334.335938 439.277344 335.226562 438.992188 334.949219 C 438.871094 334.820312 438.992188 333.972656 439.296875 333.054688 C 439.59375 332.144531 439.769531 330.8125 439.699219 330.09375 L 439.570312 328.792969 L 438.421875 330.09375 C 437.359375 331.300781 437.292969 331.328125 437.523438 330.429688 C 437.660156 329.898438 438.097656 328.90625 438.488281 328.222656 C 438.9375 327.441406 439.054688 326.886719 438.808594 326.738281 C 438.589844 326.601562 438.371094 326.554688 438.316406 326.628906 C 438.257812 326.703125 437.824219 327.417969 437.34375 328.210938 C 436.441406 329.707031 435.375 330.144531 435.375 329.019531 C 435.375 328.667969 435.804688 327.816406 436.335938 327.128906 C 437.144531 326.066406 437.199219 325.839844 436.6875 325.644531 C 436.355469 325.515625 436.015625 325.414062 435.933594 325.414062 C 435.726562 325.414062 433.054688 329.394531 433.054688 329.703125 C 433.054688 329.835938 433.558594 330.050781 434.167969 330.171875 C 435.3125 330.402344 436.535156 331.355469 436.535156 332.023438 C 436.535156 332.230469 436.101562 332.800781 435.570312 333.292969 C 435.039062 333.785156 434.601562 334.339844 434.601562 334.523438 C 434.601562 335.171875 431.3125 339.679688 430.832031 339.691406 C 430.144531 339.691406 430.21875 339.394531 431.511719 336.84375 C 432.152344 335.59375 432.667969 334.242188 432.667969 333.839844 C 432.667969 333.441406 432.960938 333 433.320312 332.859375 C 434.453125 332.425781 432.773438 332.035156 429.664062 332.003906 C 427.3125 331.964844 426.808594 332.089844 426.613281 332.652344 C 426.484375 333.023438 425.707031 334.777344 424.886719 336.558594 C 423.914062 338.667969 423.476562 340.09375 423.625 340.675781 C 423.941406 341.9375 422.457031 342.761719 421.863281 341.660156 Z M 419.335938 337.851562 C 420.027344 336.1875 421.015625 331.554688 421.160156 329.304688 L 421.324219 326.84375 L 417.496094 327.050781 C 415.390625 327.164062 413.589844 327.339844 413.492188 327.441406 C 413.398438 327.535156 412.980469 328.808594 412.566406 330.273438 C 411.496094 334.054688 410.15625 337.320312 409.589844 337.539062 C 408.703125 337.878906 408.550781 335.777344 409.273438 333.144531 C 409.652344 331.753906 410.050781 330.265625 410.160156 329.839844 C 410.347656 329.144531 410.257812 329.160156 409.273438 330.035156 L 408.179688 331 L 408.988281 329.582031 C 409.683594 328.371094 409.714844 328.128906 409.222656 327.941406 C 408.902344 327.816406 408.59375 327.71875 408.53125 327.71875 C 408.472656 327.71875 407.527344 329.148438 406.4375 330.902344 C 404.457031 334.085938 402.617188 336.4375 402.324219 336.148438 C 401.523438 335.347656 405.414062 328.554688 409.679688 323.332031 C 412.296875 320.121094 413.140625 320.480469 411.027344 323.910156 C 409.117188 327.011719 410.730469 326.132812 413.597656 322.507812 C 414.269531 321.65625 414.953125 321.09375 415.117188 321.253906 C 415.363281 321.503906 415.078125 322.25 413.824219 324.664062 C 413.761719 324.789062 415.496094 324.8125 417.679688 324.71875 L 421.652344 324.542969 L 422.621094 325.84375 C 423.417969 326.914062 423.578125 327.550781 423.550781 329.523438 C 423.511719 331.484375 423.230469 332.503906 421.929688 335.21875 C 420.878906 337.394531 420.117188 338.527344 419.695312 338.527344 C 419.242188 338.527344 419.136719 338.335938 419.335938 337.851562 Z M 398.964844 333.144531 C 398.542969 332.464844 398.070312 332.351562 395.757812 332.34375 C 393.171875 332.34375 390.335938 331.890625 389.871094 331.429688 C 389.75 331.308594 389.871094 330.941406 390.148438 330.613281 C 390.566406 330.113281 391.363281 330.058594 395.324219 330.269531 C 397.898438 330.410156 400.222656 330.695312 400.488281 330.90625 C 400.835938 331.175781 400.972656 331.105469 400.972656 330.644531 C 400.972656 329.925781 404.207031 324.988281 406.046875 322.890625 C 407.292969 321.480469 407.929688 321.195312 407.929688 322.046875 C 407.929688 322.554688 403.335938 329.496094 401.929688 331.105469 C 401.511719 331.585938 401.074219 332.367188 400.957031 332.839844 C 400.679688 333.976562 399.589844 334.144531 398.964844 333.144531 Z M 382.574219 329.585938 C 382.167969 328.929688 383.929688 327.660156 385.066406 327.796875 C 385.59375 327.859375 386.097656 328.117188 386.179688 328.367188 C 386.460938 329.226562 383.0625 330.378906 382.574219 329.585938 Z M 398.652344 329.078125 C 398.652344 328.367188 400.828125 324.535156 401.875 323.414062 C 402.914062 322.289062 403.089844 322.21875 403.21875 322.847656 C 403.378906 323.617188 399.964844 328.914062 399.136719 329.171875 C 398.867188 329.257812 398.652344 329.214844 398.652344 329.078125 Z M 388.988281 327.476562 C 388.988281 326.601562 390.617188 324.039062 392.695312 321.636719 L 394.117188 319.996094 L 393.003906 320.035156 C 392.070312 320.074219 391.519531 320.5625 389.621094 323.144531 C 388.375 324.84375 387.269531 326.140625 387.160156 326.03125 C 386.75 325.621094 387.492188 323.863281 388.792969 322.164062 L 390.144531 320.394531 L 388.792969 320.394531 C 387.484375 320.394531 386.941406 319.78125 387.925781 319.421875 C 388.195312 319.324219 391.445312 318.980469 395.15625 318.660156 C 407.445312 317.601562 421.457031 318.0625 421.457031 319.535156 C 421.457031 320.386719 420.730469 321.503906 419.867188 321.964844 C 419.117188 322.363281 419.082031 322.316406 419.324219 321.203125 C 419.53125 320.277344 419.457031 320.007812 419.003906 320.007812 C 418.683594 320.007812 418.296875 320.394531 418.148438 320.871094 C 417.75 322.121094 416.371094 323.867188 415.78125 323.867188 C 415.066406 323.867188 415.152344 323.191406 416.046875 321.746094 L 416.820312 320.496094 L 415.371094 320.253906 C 414.574219 320.125 409.71875 320.015625 404.582031 320.011719 L 395.246094 320.011719 L 393.078125 323.230469 C 391.890625 325 390.480469 326.855469 389.953125 327.351562 C 389.039062 328.207031 388.988281 328.214844 388.988281 327.492188 Z M 395.5625 327.347656 C 395.5625 326.730469 397.636719 323.5 398.164062 323.296875 C 398.96875 322.988281 398.722656 323.871094 397.453125 325.851562 C 396.332031 327.59375 395.5625 328.203125 395.5625 327.347656 Z M 384.980469 326.65625 C 384.546875 325.144531 384.550781 320.261719 384.980469 320.113281 C 385.480469 319.9375 386.519531 326.246094 386.101562 326.921875 C 385.71875 327.539062 385.199219 327.414062 384.976562 326.65625 Z M 393.242188 326.09375 C 393.242188 325.390625 396.246094 321.15625 396.746094 321.15625 C 397.425781 321.15625 397.109375 322.011719 395.757812 323.851562 C 394.066406 326.15625 393.242188 326.886719 393.242188 326.09375 Z M 308.589844 323.878906 C 308.589844 323.445312 308.394531 323.085938 308.15625 323.085938 C 307.886719 323.085938 307.828125 322.757812 307.992188 322.21875 C 308.140625 321.738281 308.238281 319.585938 308.207031 317.429688 C 308.152344 313.4375 308.457031 312.527344 309.550781 313.429688 C 309.847656 313.675781 310.929688 313.851562 311.953125 313.816406 C 312.972656 313.777344 315.15625 313.765625 316.800781 313.777344 C 319.570312 313.816406 319.796875 313.875 319.796875 314.621094 C 319.796875 315.339844 319.644531 315.398438 318.296875 315.171875 C 315.273438 314.660156 314.339844 315.132812 311.972656 318.40625 C 310.757812 320.082031 309.691406 322.019531 309.542969 322.820312 C 309.246094 324.394531 308.589844 325.121094 308.589844 323.871094 Z M 311.671875 316.039062 C 311.671875 315.882812 311.332031 315.75 310.90625 315.75 C 310.292969 315.75 310.132812 316.003906 310.140625 317.003906 L 310.140625 318.257812 L 310.898438 317.292969 C 311.316406 316.761719 311.664062 316.199219 311.664062 316.039062 Z M 427.132812 320.519531 C 426.726562 320.105469 426.824219 318.839844 427.269531 318.839844 C 427.84375 318.839844 428.203125 319.980469 427.769531 320.414062 C 427.5625 320.617188 427.28125 320.664062 427.132812 320.519531 Z M 295.640625 319.234375 C 295.289062 318.652344 296.125 315.96875 297.023438 314.835938 C 298.105469 313.460938 298.828125 313.566406 300.761719 315.386719 C 302.554688 317.078125 302.675781 317.363281 301.859375 318.035156 C 301.421875 318.398438 301.070312 318.144531 300.039062 316.707031 C 298.875 315.085938 298.710938 314.988281 298.261719 315.609375 C 297.988281 315.976562 297.765625 316.695312 297.765625 317.203125 C 297.765625 319 296.34375 320.363281 295.640625 319.234375 Z M 494.09375 316.097656 C 492.28125 311.035156 489.414062 307.644531 486.945312 307.644531 C 485.726562 307.644531 485.417969 306.96875 486.230469 306.074219 C 488.234375 303.859375 492.910156 306.855469 495.226562 311.84375 C 496.003906 313.519531 496.226562 314.574219 496.195312 316.460938 C 496.125 320.273438 495.558594 320.175781 494.09375 316.097656 Z M 357.148438 314 C 357.015625 313.65625 356.90625 312.15625 356.90625 310.671875 C 356.90625 308.375 357.054688 307.785156 357.890625 306.6875 C 359.851562 304.121094 360.054688 304.433594 359.855469 309.675781 L 359.679688 314.398438 L 358.535156 314.515625 C 357.757812 314.597656 357.316406 314.433594 357.148438 314 Z M 239.25 307.335938 C 238.753906 306.535156 238.921875 302.8125 239.511719 301.398438 C 240.359375 299.375 242.414062 297.21875 243.496094 297.21875 C 244.710938 297.21875 244.664062 297.617188 243.28125 298.941406 C 241.867188 300.292969 241 302.074219 240.175781 305.316406 C 239.796875 306.824219 239.429688 307.625 239.25 307.335938 Z M 239.25 307.335938 " fill-opacity="1" fill-rule="nonzero"/></g></svg>