<svg xmlns="http://www.w3.org/2000/svg" xmlns:xlink="http://www.w3.org/1999/xlink" width="940" zoomAndPan="magnify" viewBox="0 0 705 591.000005" height="788" preserveAspectRatio="xMidYMid meet" version="1.0"><defs><clipPath id="cad43fc7a3"><path d="M 176 59 L 529.195312 59 L 529.195312 530.703125 L 176 530.703125 Z M 176 59 " clip-rule="nonzero"/></clipPath></defs><g clip-path="url(#cad43fc7a3)"><path fill="#000000" d="M 183.261719 529.878906 C 181.015625 529.144531 178.367188 527.539062 177.417969 526.332031 C 175.875 524.371094 176.667969 521.097656 179.226562 518.855469 C 181.222656 517.097656 184.953125 515.441406 186.90625 515.441406 C 187.890625 515.441406 188.609375 515.25 188.683594 514.960938 C 188.980469 513.90625 190.132812 505.265625 190.851562 498.75 C 191.675781 491.238281 196.546875 458.34375 198.742188 445.394531 C 199.5 440.96875 202.074219 428.011719 204.46875 416.617188 C 210.359375 388.527344 211.207031 383.761719 212.527344 371.328125 C 213.363281 363.460938 214.105469 357.078125 215.019531 350.027344 C 215.804688 344.015625 216.019531 341.277344 217.101562 323.539062 C 217.808594 311.78125 218.832031 298.503906 219.03125 298.296875 C 219.113281 298.214844 219.632812 298.4375 220.175781 298.800781 C 221.347656 299.566406 221.382812 300.167969 220.773438 308.167969 C 220.550781 311.027344 220.144531 317.847656 219.863281 323.324219 L 219.359375 333.277344 L 220.648438 338.101562 C 222.753906 345.976562 224.855469 358.617188 229.007812 388.40625 L 230.367188 398.191406 L 229.277344 401.648438 C 228.246094 404.929688 228.179688 405.03125 227.949219 403.757812 C 227.820312 403.015625 226.152344 391.355469 224.246094 377.847656 C 220.441406 350.800781 218.90625 341.796875 218.4375 343.691406 C 218.132812 344.914062 216.101562 362.148438 215.390625 369.59375 C 214.179688 382.292969 212.320312 392.765625 206.199219 421.414062 C 204.914062 427.425781 203.179688 436.109375 202.347656 440.703125 C 200.65625 450.03125 195.226562 485.761719 193.707031 497.59375 C 193.164062 501.816406 192.632812 505.554688 192.527344 505.898438 C 192.429688 506.246094 192.171875 508.234375 191.972656 510.320312 C 191.777344 512.398438 191.503906 514.558594 191.371094 515.117188 C 191.164062 516.007812 191.28125 516.167969 192.320312 516.390625 C 194.085938 516.785156 197.230469 519.265625 198.171875 521.03125 C 199.796875 524.066406 198.351562 526.8125 194.019531 528.941406 C 191.875 529.996094 191.015625 530.191406 188.1875 530.292969 C 186.125 530.367188 184.265625 530.210938 183.261719 529.878906 Z M 193.097656 527.035156 C 194.019531 526.671875 195.132812 525.90625 195.5625 525.328125 C 196.3125 524.320312 196.324219 524.214844 195.710938 522.945312 C 194.769531 520.972656 191.628906 519.050781 188.152344 518.320312 L 185.28125 517.726562 L 182.773438 518.976562 C 180.902344 519.925781 180.074219 520.59375 179.507812 521.65625 L 178.746094 523.085938 L 179.546875 524.15625 C 180.4375 525.34375 182.113281 526.433594 184.242188 527.191406 C 186.246094 527.910156 191.050781 527.816406 193.097656 527.035156 Z M 487.765625 522.929688 C 486.460938 521.832031 485.296875 521.722656 483.714844 522.546875 C 482.402344 523.226562 482.320312 523.242188 482.320312 522.714844 C 482.320312 522.167969 484.738281 521.195312 486.050781 521.210938 C 487.210938 521.246094 489.917969 523.265625 489.292969 523.652344 C 489.085938 523.785156 488.402344 523.457031 487.765625 522.929688 Z M 472.714844 523.167969 C 472.714844 521.863281 476.453125 520.851562 478.632812 521.566406 C 480.257812 522.101562 480.519531 522.902344 478.960938 522.566406 C 477.953125 522.34375 474.820312 522.769531 473.390625 523.324219 C 473.003906 523.472656 472.714844 523.40625 472.714844 523.167969 Z M 450.625 520.726562 C 448.71875 519.464844 446.476562 519.101562 444.972656 519.8125 C 444.488281 520.042969 444.296875 519.96875 444.296875 519.539062 C 444.296875 517.714844 449.40625 517.015625 451.386719 518.566406 L 452.425781 519.390625 L 453.949219 518.523438 C 455.558594 517.625 456.054688 517.625 460.429688 518.5 C 461.59375 518.730469 463.050781 518.996094 463.6875 519.085938 C 464.316406 519.175781 465.023438 519.515625 465.265625 519.84375 C 465.503906 520.164062 465.90625 520.429688 466.164062 520.429688 C 466.863281 520.429688 466.417969 521.371094 465.652344 521.519531 C 465.289062 521.59375 464.414062 521.378906 463.703125 521.039062 C 462.226562 520.339844 458.859375 520.230469 458.234375 520.859375 C 457.679688 521.417969 456.921875 520.941406 457.054688 520.117188 C 457.21875 519.167969 455.484375 519.117188 454 520.035156 C 453.183594 520.535156 452.835938 521 452.984375 521.386719 C 453.332031 522.277344 452.679688 522.09375 450.625 520.734375 Z M 459.273438 521.582031 C 459.273438 521.371094 459.445312 521.203125 459.660156 521.203125 C 459.867188 521.203125 460.039062 521.371094 460.039062 521.582031 C 460.039062 521.796875 459.867188 521.972656 459.660156 521.972656 C 459.445312 521.972656 459.273438 521.796875 459.273438 521.582031 Z M 470.800781 520.238281 C 470.800781 519.925781 470.964844 519.664062 471.179688 519.664062 C 471.394531 519.664062 471.566406 519.40625 471.566406 519.09375 C 471.566406 518.320312 470.042969 517.996094 468.714844 518.5 C 467.796875 518.847656 466.832031 518.78125 467.375 518.410156 C 470.851562 516.007812 471.863281 515.738281 473.367188 516.785156 C 474.300781 517.4375 475.347656 517.1875 476.097656 516.140625 C 476.644531 515.390625 477.707031 515.191406 477.707031 515.84375 C 477.707031 516.058594 477.441406 516.339844 477.113281 516.464844 C 476.601562 516.660156 476.632812 516.816406 477.335938 517.566406 C 478.195312 518.484375 477.738281 519.339844 476.808594 518.566406 C 476.121094 517.996094 474.671875 518.433594 473.027344 519.710938 C 471.445312 520.949219 470.800781 521.097656 470.800781 520.238281 Z M 482.144531 519.703125 C 482.007812 519.472656 481.125 519.285156 480.183594 519.285156 C 478.8125 519.285156 478.472656 519.152344 478.472656 518.605469 C 478.472656 517.691406 479.960938 516.769531 480.519531 517.328125 C 480.75 517.558594 480.777344 517.75 480.578125 517.75 C 480.390625 517.75 480.621094 518.023438 481.097656 518.351562 C 481.785156 518.839844 482.082031 518.871094 482.527344 518.5 C 482.832031 518.253906 483.507812 518.121094 484.027344 518.21875 C 484.925781 518.394531 484.96875 518.328125 484.8125 516.824219 C 484.5625 514.460938 484.152344 469.085938 484.21875 451.347656 C 484.273438 433.867188 483.746094 415.898438 482.898438 406.441406 C 482.0625 397.1875 482.164062 393.394531 483.226562 393.394531 C 483.523438 393.394531 483.960938 396.496094 484.546875 402.753906 C 485.917969 417.316406 486.199219 424.878906 486.082031 443.195312 C 486.015625 452.535156 486.058594 460.171875 486.15625 460.164062 C 486.265625 460.164062 488.070312 457.632812 490.167969 454.558594 C 494.390625 448.363281 496.835938 445.988281 502.148438 442.855469 C 506.734375 440.160156 510.011719 439.003906 513.683594 438.773438 C 516.792969 438.574219 516.851562 438.59375 518.007812 439.753906 C 518.898438 440.636719 519.1875 441.273438 519.1875 442.335938 C 519.1875 444.511719 518.1875 446.136719 515.0625 449.058594 C 509.765625 454.003906 503.148438 457.816406 491.066406 462.894531 C 488.375 464.023438 486.117188 465.121094 486.042969 465.34375 C 485.96875 465.558594 486.050781 471.183594 486.230469 477.828125 C 486.414062 484.484375 486.519531 495.980469 486.453125 503.382812 L 486.355469 516.851562 L 487.5 516.148438 C 489.167969 515.136719 491.511719 515.242188 493.226562 516.40625 C 494.003906 516.933594 494.855469 517.363281 495.101562 517.371094 C 495.355469 517.371094 496 517.714844 496.527344 518.128906 C 497.058594 518.542969 497.699219 518.886719 497.964844 518.886719 C 498.230469 518.886719 498.453125 519.070312 498.453125 519.285156 C 498.453125 520.347656 492.875 518.871094 492.566406 517.726562 C 492.363281 516.917969 490.148438 516.378906 488.625 516.761719 C 488.070312 516.898438 487.082031 517.59375 486.414062 518.308594 C 485.132812 519.679688 482.640625 520.496094 482.144531 519.695312 Z M 494.886719 459.167969 C 504.894531 454.8125 509.996094 451.730469 514.441406 447.375 C 516.792969 445.074219 517.265625 444.398438 517.265625 443.367188 C 517.265625 442.625 516.941406 441.816406 516.449219 441.320312 C 515.738281 440.605469 515.316406 440.53125 513.089844 440.695312 C 509.96875 440.933594 506.902344 442 503.128906 444.140625 C 498.394531 446.847656 495.589844 449.503906 492.046875 454.605469 C 490.289062 457.148438 488.855469 459.28125 488.855469 459.355469 C 488.847656 459.4375 489.925781 458.425781 491.246094 457.113281 C 495.152344 453.238281 507.46875 445.609375 508.335938 446.542969 C 508.492188 446.707031 508.410156 446.921875 508.148438 447.019531 C 507.246094 447.339844 497.867188 453.351562 495.375 455.199219 C 494.003906 456.222656 491.84375 458.121094 490.570312 459.421875 C 487.882812 462.195312 487.945312 462.195312 494.886719 459.167969 Z M 251.894531 519.308594 C 246.871094 518.382812 245.3125 516.183594 247.976562 513.78125 L 248.753906 513.082031 L 247.488281 508.414062 C 244.097656 495.832031 241.738281 484.128906 239.253906 467.660156 C 238.390625 461.960938 237.605469 456.824219 237.503906 456.238281 C 237.28125 455.003906 237.273438 455.003906 239 455.828125 C 240.550781 456.570312 240.304688 455.628906 242.117188 467.273438 C 242.878906 472.128906 244.503906 481.203125 245.734375 487.425781 C 246.960938 493.652344 248.085938 499.699219 248.214844 500.859375 C 248.355469 502.023438 248.703125 503.746094 249 504.695312 C 249.289062 505.644531 249.800781 507.390625 250.128906 508.578125 L 250.734375 510.738281 L 257.9375 510.765625 C 264.132812 510.796875 265.496094 510.898438 267.691406 511.589844 C 270.585938 512.496094 271.222656 513.074219 271.222656 514.773438 C 271.222656 516.304688 269.375 517.921875 266.675781 518.765625 C 264.464844 519.457031 254.636719 519.820312 251.894531 519.316406 Z M 266.675781 516.289062 C 271.121094 514.773438 267.394531 513.15625 258.769531 512.851562 C 252.878906 512.644531 251.003906 512.941406 249.816406 514.253906 C 249.238281 514.886719 249.238281 514.996094 249.792969 515.457031 C 251.003906 516.453125 254.042969 516.925781 259.378906 516.933594 C 263.464844 516.933594 265.222656 516.785156 266.675781 516.289062 Z M 503.445312 519.125 C 503.445312 518.839844 503.007812 518.492188 502.476562 518.359375 C 501.035156 517.996094 501.296875 517.289062 502.773438 517.558594 C 503.742188 517.742188 504.550781 517.527344 506.273438 516.621094 C 508.824219 515.285156 510.703125 515.109375 511.636719 516.140625 C 512.585938 517.1875 512.414062 517.632812 511.125 517.445312 C 509.382812 517.1875 507.328125 517.691406 506.421875 518.605469 C 505.449219 519.570312 503.445312 519.925781 503.445312 519.125 Z M 524.453125 518.484375 C 522.851562 517.632812 522.875 516.984375 524.507812 516.984375 C 525.914062 516.984375 527.058594 517.839844 526.746094 518.648438 C 526.449219 519.441406 526.242188 519.421875 524.453125 518.484375 Z M 513.097656 518.558594 C 512.246094 518.023438 513.296875 517.632812 514.832031 517.921875 C 515.621094 518.070312 516.101562 518.03125 515.96875 517.824219 C 515.632812 517.28125 516.578125 516.332031 517.742188 516.058594 C 518.542969 515.871094 518.800781 515.960938 518.800781 516.398438 C 518.800781 516.71875 518.519531 516.984375 518.179688 516.984375 C 517.675781 516.984375 517.644531 517.089844 518.023438 517.535156 C 518.273438 517.847656 518.371094 518.277344 518.238281 518.5 C 517.941406 518.976562 513.839844 519.027344 513.097656 518.558594 Z M 459.527344 517.875 C 459.042969 517.386719 459.28125 517 460.410156 516.414062 C 461.796875 515.695312 461.964844 515.6875 461.964844 516.339844 C 461.964844 517.371094 460.164062 518.507812 459.527344 517.875 Z M 480.957031 516.019531 C 480.808594 514.855469 480.835938 513.429688 481 512.851562 C 481.429688 511.382812 481.609375 486.230469 481.261719 476.492188 L 480.976562 468.429688 L 478.878906 467.371094 C 477.582031 466.722656 476.164062 466.316406 475.175781 466.316406 C 473.582031 466.316406 473.101562 465.914062 473.101562 464.558594 C 473.101562 463.84375 477.320312 463.84375 479.339844 464.558594 C 480.421875 464.941406 480.785156 464.957031 480.785156 464.617188 C 480.785156 464.007812 478.300781 461.632812 477.996094 461.9375 C 477.855469 462.070312 477.003906 461.832031 476.097656 461.402344 C 475.191406 460.964844 473.8125 460.363281 473.035156 460.042969 C 471.75 459.523438 470.46875 458.0625 470.917969 457.625 C 471.015625 457.527344 472.179688 457.890625 473.507812 458.425781 C 474.835938 458.96875 476.015625 459.40625 476.121094 459.40625 C 476.625 459.40625 473.070312 456.097656 470.875 454.53125 C 468.703125 452.964844 466.527344 450.113281 467.085938 449.550781 C 467.328125 449.3125 470.164062 450.773438 472.335938 452.238281 C 473.285156 452.882812 475.757812 455.152344 477.839844 457.269531 L 481.625 461.128906 L 481.378906 451.152344 C 480.933594 433 480.390625 418.644531 479.8125 409.894531 C 479.507812 405.144531 479.25 400.15625 479.25 398.8125 L 479.242188 396.363281 L 477.996094 397.320312 C 477.3125 397.839844 476.527344 398.769531 476.246094 399.378906 C 475.339844 401.402344 475.140625 401.640625 474.289062 401.773438 C 472.085938 402.09375 471.839844 399.710938 473.695312 396.050781 L 474.652344 394.160156 L 473.390625 394.160156 C 470.535156 394.160156 465.453125 390.671875 464.074219 387.777344 C 463.464844 386.492188 463.347656 386.425781 462.019531 386.664062 C 457.820312 387.398438 454.050781 389.847656 451.988281 393.1875 C 451.550781 393.898438 450.914062 394.582031 450.566406 394.714844 C 449.742188 395.027344 448.652344 393.996094 448.125 392.402344 C 447.21875 389.648438 449.980469 382.746094 453.207031 379.738281 C 454.25 378.765625 455.046875 377.921875 454.984375 377.875 C 454.25 377.320312 449.207031 376.398438 446.796875 376.375 C 443.230469 376.339844 440.484375 376.933594 437.042969 378.476562 C 435.699219 379.085938 434.527344 379.582031 434.453125 379.582031 C 434.378906 379.582031 434.3125 379.167969 434.3125 378.664062 C 434.3125 378.164062 435.015625 376.695312 435.878906 375.410156 C 439.691406 369.695312 446.167969 366.195312 454.191406 365.503906 C 455.71875 365.371094 456.972656 365.175781 456.972656 365.066406 C 456.972656 364.953125 456.707031 364.5625 456.378906 364.210938 C 455.660156 363.410156 455.253906 361.167969 455.585938 359.832031 C 455.890625 358.636719 456.878906 358.570312 459.117188 359.582031 C 460.75 360.324219 462.707031 362.378906 461.996094 362.617188 C 461.773438 362.691406 460.617188 362.304688 459.429688 361.761719 C 458.234375 361.214844 457.195312 360.769531 457.121094 360.769531 C 456.601562 360.769531 457.144531 362.4375 458.09375 363.730469 C 458.941406 364.910156 459.5625 365.339844 460.683594 365.546875 C 461.492188 365.695312 462.523438 365.898438 462.96875 366.007812 L 463.785156 366.207031 L 463.078125 364.160156 C 462.046875 361.160156 462.101562 356.8125 463.210938 354.609375 C 463.6875 353.671875 464.382812 352.847656 464.742188 352.78125 C 465.890625 352.566406 469.382812 353.769531 471.289062 355.039062 C 472.285156 355.699219 473.664062 357.019531 474.339844 357.960938 C 475.023438 358.90625 475.636719 359.5 475.710938 359.296875 C 475.949219 358.5625 473.902344 353.347656 472.648438 351.519531 C 471.4375 349.738281 469.199219 348.105469 467.96875 348.105469 C 467.632812 348.105469 467.09375 348.609375 466.78125 349.226562 C 465.988281 350.742188 464.828125 351.066406 463.546875 350.125 C 461.757812 348.789062 462.152344 344.90625 464.125 344.410156 C 465.191406 344.144531 466.957031 345.144531 466.957031 346 C 466.957031 346.421875 467.417969 346.570312 468.703125 346.570312 C 472.285156 346.570312 474.726562 349.078125 476.734375 354.816406 L 477.589844 357.257812 L 479.019531 355.335938 C 479.886719 354.183594 480.363281 353.175781 480.222656 352.8125 C 480.101562 352.484375 479.828125 351.007812 479.613281 349.53125 C 479.40625 348.054688 478.886719 346.058594 478.464844 345.101562 C 477.796875 343.59375 477.632812 343.453125 477.21875 343.988281 C 476.015625 345.574219 473.101562 345.457031 473.101562 343.824219 C 473.101562 342.347656 473.976562 340.492188 474.769531 340.285156 C 475.703125 340.039062 476.378906 340.386719 478.195312 342.050781 C 479.925781 343.636719 480.742188 345.835938 481.050781 349.746094 L 481.28125 352.738281 L 482.164062 351.90625 C 483.011719 351.113281 483.492188 351.089844 485.101562 351.75 C 485.605469 351.957031 485.777344 351.839844 485.777344 351.289062 C 485.777344 349.433594 487.128906 346.742188 489.09375 344.699219 C 490.265625 343.488281 491.148438 342.207031 491.148438 341.746094 C 491.148438 339.777344 494.390625 338.867188 495.546875 340.519531 C 496.355469 341.671875 496.296875 342.421875 495.316406 343.46875 C 494.621094 344.210938 494.226562 344.328125 492.765625 344.164062 C 491.296875 343.988281 490.910156 344.105469 490.199219 344.871094 C 489.257812 345.886719 488.492188 347.59375 487.445312 350.984375 L 486.734375 353.292969 L 487.898438 355.023438 L 489.0625 356.761719 L 490.496094 353.785156 C 493.164062 348.261719 498.113281 344.007812 501.511719 344.335938 C 502.726562 344.453125 503.046875 344.335938 503.195312 343.757812 C 503.351562 343.164062 503.609375 343.089844 504.664062 343.3125 C 506.414062 343.691406 506.511719 343.785156 506.511719 344.988281 C 506.511719 346.324219 504.714844 348.105469 503.359375 348.105469 C 502.253906 348.105469 501.84375 347.445312 502.171875 346.199219 C 502.363281 345.464844 502.273438 345.40625 501.28125 345.640625 C 496.835938 346.6875 492.789062 351.261719 491.007812 357.257812 L 490.398438 359.3125 L 491.445312 358.617188 C 496.578125 355.222656 500.472656 353.730469 503.683594 353.933594 C 505.507812 354.050781 505.546875 354.082031 505.433594 355.203125 C 505.359375 355.839844 504.796875 357.621094 504.179688 359.171875 C 503.558594 360.714844 503.054688 362.117188 503.054688 362.28125 C 503.054688 362.445312 503.945312 362.691406 505.042969 362.816406 C 506.800781 363.03125 507.644531 363.492188 507.660156 364.285156 C 507.667969 364.605469 505.0625 366.148438 504.507812 366.148438 C 504.277344 366.148438 504.375 365.824219 504.722656 365.4375 C 505.671875 364.390625 505.523438 364.226562 503.648438 364.226562 C 502.371094 364.226562 501.726562 364.441406 501.117188 365.09375 C 500.265625 365.992188 499.070312 368.050781 499.285156 368.25 C 499.351562 368.316406 500.53125 368.125 501.902344 367.839844 C 509.417969 366.253906 517.675781 368.003906 524.425781 372.605469 C 527.296875 374.566406 529.171875 377.675781 529.171875 380.496094 C 529.171875 381.773438 529.015625 382.261719 528.617188 382.261719 C 528.320312 382.261719 527.96875 381.949219 527.84375 381.558594 C 527.710938 381.140625 526.042969 380.09375 523.691406 378.972656 C 519.789062 377.089844 519.742188 377.082031 515.917969 377.089844 C 513.808594 377.089844 511.308594 377.328125 510.351562 377.617188 L 508.625 378.136719 L 510.160156 378.8125 C 514.476562 380.695312 517.652344 386.753906 517.652344 393.089844 C 517.652344 395.585938 517.148438 396.527344 516.621094 395.027344 C 516.207031 393.847656 510.621094 388.832031 508.417969 387.664062 C 505.894531 386.320312 502.941406 385.585938 501.289062 385.890625 C 500.398438 386.0625 499.738281 386.640625 498.632812 388.25 C 496.332031 391.585938 492.355469 393.804688 489.820312 393.171875 C 488.640625 392.875 488.605469 393.128906 489.621094 394.554688 C 490.753906 396.140625 491.5625 398.25 491.304688 398.925781 C 491.183594 399.242188 490.726562 399.621094 490.300781 399.75 C 489.703125 399.941406 489.011719 399.496094 487.285156 397.78125 C 484.945312 395.472656 484.730469 394.769531 486.46875 395.148438 L 487.5 395.371094 L 486.246094 394.195312 C 485.554688 393.542969 484.664062 393.007812 484.25 393.007812 C 483.21875 393.007812 482.964844 392.421875 483.6875 391.695312 C 484.457031 390.929688 485.125 390.9375 486.628906 391.695312 C 488.046875 392.4375 490.175781 392.238281 492.75 391.132812 C 494.515625 390.375 497.296875 388.214844 497.296875 387.589844 C 497.296875 387.40625 496.429688 387.589844 495.367188 388.015625 C 493.300781 388.824219 490.769531 388.882812 490.769531 388.125 C 490.769531 387.867188 490.960938 386.78125 491.191406 385.707031 C 491.414062 384.636719 491.496094 383.480469 491.371094 383.144531 C 491.164062 382.597656 491.058594 382.597656 490.472656 383.09375 C 489.285156 384.09375 486.222656 385.707031 486.058594 385.410156 C 485.976562 385.253906 485.957031 385.363281 486.03125 385.640625 C 486.28125 386.617188 485.71875 386.871094 485.066406 386.070312 C 484.433594 385.28125 484.398438 385.3125 483.128906 387.785156 C 481.941406 390.113281 481.164062 390.707031 481.164062 389.296875 C 481.164062 388.972656 480.628906 388.175781 479.96875 387.515625 L 478.773438 386.320312 L 478.21875 387.382812 C 477.589844 388.5625 476.808594 388.546875 476.632812 387.347656 C 476.570312 386.921875 475.875 386.054688 475.101562 385.4375 C 472.796875 383.613281 472.804688 383.613281 473.144531 385.757812 C 473.546875 388.304688 473.046875 388.90625 470.972656 388.332031 C 470.171875 388.117188 468.878906 387.53125 468.101562 387.042969 C 467.246094 386.5 466.5 386.277344 466.195312 386.46875 C 465.097656 387.144531 468.144531 389.871094 472.617188 392.222656 C 474.800781 393.367188 475.109375 393.433594 476.1875 392.988281 C 477.070312 392.617188 477.476562 392.609375 477.804688 392.941406 C 478.136719 393.269531 477.945312 393.691406 477.0625 394.621094 C 474.785156 397.023438 474.234375 399.132812 476.371094 397.261719 C 477.113281 396.609375 478.136719 395.964844 478.648438 395.84375 C 479.160156 395.71875 479.671875 395.363281 479.777344 395.066406 C 479.894531 394.769531 480.222656 394.53125 480.519531 394.53125 C 480.933594 394.53125 481.105469 395.667969 481.304688 399.613281 C 481.445312 402.40625 481.726562 406.167969 481.921875 407.964844 C 482.878906 416.542969 484.101562 457.714844 483.476562 460.355469 C 483.261719 461.277344 483.195312 469.753906 483.328125 481.65625 C 483.515625 500.175781 483.449219 502.742188 482.46875 514.277344 C 482.097656 518.679688 481.394531 519.480469 480.957031 516 Z M 450.054688 393.015625 C 450.054688 392.230469 455.089844 387.359375 456.9375 386.351562 C 457.996094 385.773438 459.890625 385.121094 461.144531 384.898438 C 464.082031 384.378906 464.472656 383.488281 462.410156 381.996094 C 461.632812 381.4375 460.363281 380.488281 459.585938 379.894531 C 458.804688 379.300781 457.722656 378.804688 457.175781 378.804688 C 454.949219 378.804688 451.308594 383.597656 449.898438 388.378906 C 449.214844 390.722656 449.089844 393.394531 449.675781 393.394531 C 449.882812 393.394531 450.054688 393.230469 450.054688 393.015625 Z M 515.886719 390.558594 C 514.625 385.742188 511.925781 381.558594 509.144531 380.125 C 507.042969 379.035156 505.960938 379.382812 503.351562 381.972656 L 500.941406 384.371094 L 503.847656 384.578125 C 505.992188 384.734375 507.328125 385.082031 508.921875 385.890625 C 511.613281 387.242188 515.078125 390.285156 515.730469 391.851562 C 516.464844 393.640625 516.539062 393.054688 515.886719 390.558594 Z M 471.34375 384.964844 C 470.652344 382.320312 470.660156 381.707031 471.363281 381.125 C 471.847656 380.71875 471.824219 380.519531 471.164062 379.628906 C 470.332031 378.507812 469.539062 374.566406 469.875 373.222656 C 470.03125 372.605469 469.753906 372.070312 468.820312 371.195312 C 466.707031 369.222656 464.242188 368.125 460.460938 367.476562 C 451.804688 365.984375 442.226562 369.164062 437.976562 374.945312 C 437.234375 375.96875 436.613281 376.902344 436.613281 377.015625 C 436.613281 377.132812 437.523438 376.835938 438.636719 376.339844 C 444.644531 373.691406 452.621094 374.082031 459.273438 377.347656 C 461.082031 378.238281 462.699219 379.515625 465.105469 381.964844 C 467.820312 384.71875 471.4375 387.515625 471.808594 387.136719 C 471.847656 387.09375 471.640625 386.121094 471.34375 384.964844 Z M 482.3125 384.964844 C 483.195312 382.730469 486.320312 377.460938 489.085938 373.5625 L 490.761719 371.1875 L 489.117188 370.558594 C 487.246094 369.851562 484.945312 370.171875 482.285156 371.523438 L 480.785156 372.292969 L 479.332031 371.375 C 478.53125 370.871094 477.335938 370.335938 476.675781 370.195312 C 475.25 369.882812 472.492188 370.542969 472.21875 371.261719 C 472.105469 371.550781 472.757812 372.710938 473.664062 373.851562 C 475.355469 375.984375 478.085938 380.621094 480.140625 384.84375 C 480.785156 386.160156 481.347656 387.191406 481.394531 387.144531 C 481.445312 387.09375 481.859375 386.113281 482.3125 384.964844 Z M 495.183594 386.617188 C 496.675781 386.105469 497.792969 385.214844 500.710938 382.179688 C 503.773438 379.003906 504.886719 378.121094 507.460938 376.859375 C 513.949219 373.683594 521.226562 374.023438 525.847656 377.71875 L 527.316406 378.898438 L 526.722656 377.734375 C 525.789062 375.9375 523.15625 373.90625 519.378906 372.078125 C 514.449219 369.695312 511.746094 369.050781 506.703125 369.050781 C 501.355469 369.050781 498.65625 369.800781 496.355469 371.910156 C 495.457031 372.753906 494.605469 373.429688 494.472656 373.429688 C 493.914062 373.429688 494.769531 370.863281 495.578125 370.171875 C 496.066406 369.742188 497.074219 368.496094 497.816406 367.382812 C 499.195312 365.324219 503.15625 357.464844 503.640625 355.824219 C 503.898438 354.941406 503.855469 354.917969 502.429688 355.179688 C 498.609375 355.890625 493.707031 358.289062 491.394531 360.574219 C 490.332031 361.621094 490.226562 361.96875 490.175781 364.40625 C 490.148438 365.890625 489.992188 367.394531 489.835938 367.746094 C 489.613281 368.257812 489.925781 368.5625 491.332031 369.199219 C 493.367188 370.128906 493.839844 371.019531 493.839844 373.933594 C 493.839844 375.8125 493.664062 376.300781 491.230469 381.207031 C 491.148438 381.363281 491.488281 381.453125 491.980469 381.394531 C 492.800781 381.304688 492.890625 381.46875 492.996094 383.160156 C 493.0625 384.191406 492.9375 385.527344 492.734375 386.136719 C 492.261719 387.472656 492.519531 387.523438 495.183594 386.617188 Z M 476.195312 382.003906 C 473.003906 375.917969 471.949219 374.285156 471.949219 375.410156 C 471.949219 376.019531 473.175781 379.789062 473.9375 381.503906 C 474.324219 382.386719 476.964844 384.660156 477.253906 384.371094 C 477.320312 384.304688 476.847656 383.242188 476.195312 382.003906 Z M 487.320312 383.210938 C 488.160156 382.683594 488.847656 382.078125 488.847656 381.875 C 488.847656 381.660156 489.09375 381.496094 489.390625 381.496094 C 490.207031 381.496094 492.304688 376.117188 492.304688 374 C 492.304688 372.820312 492.15625 372.265625 491.859375 372.367188 C 491.355469 372.53125 485.414062 382.960938 485.398438 383.695312 C 485.390625 384.363281 485.570312 384.316406 487.320312 383.210938 Z M 474.457031 368.441406 C 474.746094 368.441406 475 367.359375 475.15625 365.472656 C 475.414062 362.519531 475.40625 362.496094 474.019531 360.484375 C 472.292969 357.984375 470.578125 356.449219 468.109375 355.195312 C 465.625 353.941406 464.734375 353.96875 464.222656 355.296875 C 463.554688 357.011719 464.042969 361.421875 465.222656 364.316406 C 466.082031 366.4375 466.648438 367.210938 468.367188 368.570312 L 470.460938 370.230469 L 472.226562 369.339844 C 473.203125 368.84375 474.199219 368.441406 474.457031 368.441406 Z M 482.898438 369.414062 C 483.738281 369.015625 485.421875 368.621094 486.636719 368.523438 C 487.871094 368.421875 488.871094 368.160156 488.894531 367.914062 C 489.457031 362.996094 486.4375 354.816406 483.5 353.300781 C 482.410156 352.738281 482.335938 352.753906 481.5625 353.738281 C 479.582031 356.253906 476.855469 363.632812 476.78125 366.691406 C 476.75 368.117188 476.832031 368.226562 478.046875 368.480469 C 478.753906 368.628906 479.703125 369.109375 480.148438 369.554688 C 480.59375 370 481.050781 370.3125 481.15625 370.246094 C 481.273438 370.179688 482.046875 369.808594 482.898438 369.414062 Z M 465.636719 348.417969 C 465.816406 347.839844 465.691406 347.429688 465.238281 347.097656 C 464.875 346.835938 464.6875 346.429688 464.828125 346.207031 C 464.964844 345.984375 464.808594 345.796875 464.480469 345.796875 C 463.753906 345.796875 463.648438 348.089844 464.347656 348.789062 C 465.007812 349.457031 465.328125 349.367188 465.636719 348.417969 Z M 504.589844 345.21875 C 504.589844 344.90625 504.523438 344.648438 504.441406 344.648438 C 504.359375 344.648438 504.195312 344.90625 504.070312 345.21875 C 503.945312 345.539062 504.011719 345.796875 504.21875 345.796875 C 504.425781 345.796875 504.589844 345.539062 504.589844 345.21875 Z M 476.132812 343.355469 C 476.652344 342.726562 476.34375 341.722656 475.554688 341.417969 C 474.960938 341.1875 474.078125 342.894531 474.464844 343.527344 C 474.785156 344.046875 475.636719 343.957031 476.132812 343.355469 Z M 494.605469 342.183594 C 494.605469 341.9375 494.398438 341.523438 494.144531 341.269531 C 493.492188 340.617188 492.816406 340.699219 492.519531 341.464844 C 492.363281 341.878906 492.503906 342.308594 492.898438 342.597656 C 493.609375 343.117188 494.605469 342.875 494.605469 342.183594 Z M 495.078125 516.207031 C 495.207031 515.515625 497.558594 515.257812 499.707031 515.710938 C 501.992188 516.191406 501.222656 516.628906 497.957031 516.710938 C 495.472656 516.777344 494.984375 516.6875 495.078125 516.207031 Z M 460.808594 515.054688 C 460.808594 514.839844 461.378906 514.320312 462.0625 513.898438 C 464 512.71875 468.332031 512.992188 467.558594 514.246094 C 467.410156 514.492188 466.179688 514.671875 464.652344 514.671875 C 463.199219 514.671875 461.90625 514.847656 461.773438 515.054688 C 461.460938 515.554688 460.808594 515.546875 460.808594 515.054688 Z M 506.125 513.503906 C 503.996094 512.117188 502.824219 512.074219 501.835938 513.328125 C 501.421875 513.855469 500.917969 514.285156 500.71875 514.285156 C 500.019531 514.285156 500.390625 513.199219 501.480469 512.027344 C 502.304688 511.152344 502.941406 510.832031 503.882812 510.839844 C 505.753906 510.839844 508.386719 512.785156 508.417969 514.195312 C 508.4375 514.871094 508.082031 514.765625 506.125 513.503906 Z M 477.402344 513.296875 C 475.644531 512.296875 474.589844 512.332031 472.632812 513.453125 C 471.203125 514.277344 470.816406 513.707031 472.003906 512.519531 C 472.707031 511.820312 473.605469 511.464844 475.25 511.234375 C 477.648438 510.898438 478.425781 511.203125 479.316406 512.882812 C 479.96875 514.097656 479.132812 514.269531 477.402344 513.296875 Z M 491.148438 513.113281 C 491.148438 511.457031 496.148438 510.5 497.429688 511.917969 C 498.261719 512.84375 498.246094 513.625 497.394531 513.378906 C 495.226562 512.769531 494.195312 512.753906 492.875 513.304688 C 491.082031 514.054688 491.148438 514.0625 491.148438 513.113281 Z M 424.625 509.378906 C 424.402344 508.554688 424.929688 506.996094 425.425781 506.996094 C 426.117188 506.996094 426.257812 508.265625 425.671875 509.15625 C 424.964844 510.246094 424.855469 510.269531 424.625 509.378906 Z M 424.03125 488.113281 C 424.039062 487.625 423.914062 486.429688 423.757812 485.449219 C 423.496094 483.855469 423.550781 483.609375 424.285156 483.222656 C 425.410156 482.621094 425.589844 483.222656 425.210938 486.265625 C 424.921875 488.574219 424.007812 490 424.03125 488.113281 Z M 415.730469 480.476562 C 415.335938 479.222656 415.203125 477.144531 415.484375 476.691406 C 416.070312 475.75 416.589844 476.691406 416.515625 478.570312 C 416.449219 480.476562 416.035156 481.457031 415.730469 480.476562 Z M 465.132812 480.136719 C 464.472656 479.082031 464.511719 477.0625 465.179688 477.0625 C 465.765625 477.0625 466.171875 478.199219 466.179688 479.839844 C 466.1875 481.085938 465.792969 481.191406 465.132812 480.136719 Z M 451.433594 475.429688 C 450.847656 465.746094 448.140625 454.589844 443.867188 444.199219 C 438.238281 430.519531 429.691406 420.417969 419.527344 415.429688 C 414.960938 413.183594 411.984375 412.46875 407.949219 412.640625 C 406.183594 412.714844 404.738281 412.640625 404.738281 412.492188 C 404.738281 412.335938 405.183594 411.921875 405.722656 411.570312 C 406.519531 411.050781 407.296875 410.976562 410.035156 411.15625 C 422.628906 411.996094 435.152344 422.214844 443.066406 438.097656 C 446.894531 445.792969 448.933594 452.601562 450.640625 463.429688 C 451.542969 469.128906 452.359375 479.742188 451.894531 479.742188 C 451.78125 479.742188 451.574219 477.804688 451.433594 475.429688 Z M 441.878906 474.28125 C 441.640625 472.5 441.96875 471.519531 442.414062 472.667969 C 442.820312 473.707031 442.828125 475.4375 442.433594 475.683594 C 442.242188 475.800781 441.996094 475.164062 441.878906 474.28125 Z M 429.890625 472.179688 C 429.773438 471.59375 429.417969 470.621094 429.113281 470.019531 C 428.378906 468.609375 428.40625 467.984375 429.195312 467.6875 C 430.121094 467.332031 430.34375 467.761719 430.609375 470.421875 C 430.847656 472.839844 430.300781 474.183594 429.890625 472.179688 Z M 287.394531 470.570312 C 287.195312 470.382812 283.664062 469.328125 279.546875 468.222656 C 260.453125 463.117188 248.429688 458.746094 238.082031 453.164062 C 232.886719 450.359375 217.925781 441.394531 217.792969 441 C 217.546875 440.292969 219.070312 435.375 222.792969 424.863281 C 224.929688 418.84375 229.304688 405.976562 232.523438 396.261719 C 238.28125 378.847656 238.355469 378.601562 237.636719 377.816406 C 237.242188 377.386719 236.910156 376.894531 236.910156 376.734375 C 236.910156 376.570312 236.410156 375.285156 235.789062 373.882812 C 233.675781 369.066406 231.929688 357.867188 231.929688 349.136719 C 231.917969 344.492188 232.066406 343.265625 233.089844 339.199219 C 234.550781 333.417969 236.308594 329.015625 238.527344 325.59375 C 240.179688 323.042969 240.238281 322.863281 240.070312 320.554688 C 239.914062 318.457031 240.253906 316.082031 240.964844 314.21875 C 241.128906 313.800781 239.296875 312.222656 234.429688 308.589844 C 227.296875 303.253906 220.390625 297.636719 215.953125 293.554688 C 202.75 281.398438 188.195312 267.546875 187.75 266.722656 C 187.171875 265.648438 188.699219 263.140625 196.296875 252.628906 C 210.523438 232.960938 226.457031 209.515625 232.234375 199.753906 C 233.445312 197.707031 234.007812 196.148438 234.609375 193.230469 C 235.046875 191.117188 236.09375 187.09375 236.953125 184.28125 C 237.8125 181.46875 238.429688 178.964844 238.332031 178.707031 C 238.230469 178.445312 236.65625 178.023438 234.773438 177.75 C 222.859375 176.035156 207.074219 167.417969 199.113281 158.296875 C 193.714844 152.113281 190.941406 146.753906 189.003906 138.804688 C 187.9375 134.425781 188.0625 120.257812 189.21875 114.46875 C 192.394531 98.570312 201.753906 83.875 212.71875 77.539062 C 215.605469 75.875 216.917969 75.347656 226.5 71.964844 C 235.097656 68.929688 239.542969 67.925781 244.304688 67.917969 L 247.863281 67.917969 L 251.320312 65.804688 C 255.585938 63.191406 261.742188 60.742188 266.015625 59.960938 C 268.796875 59.449219 269.703125 59.441406 272.476562 59.867188 C 275.933594 60.40625 276.765625 61.015625 274.042969 61.015625 C 271.734375 61.015625 264.234375 62.410156 261.371094 63.363281 C 258.390625 64.363281 251.894531 67.457031 251.894531 67.867188 C 251.894531 68.039062 252.566406 68.207031 253.382812 68.238281 C 257.027344 68.386719 263.628906 70.332031 268.136719 72.59375 L 270.355469 73.707031 L 273.34375 72.757812 C 279.804688 70.722656 285.667969 70.152344 291.015625 71.027344 C 295.066406 71.695312 295.292969 71.75 295.292969 72.195312 C 295.292969 72.476562 294.714844 72.527344 293.550781 72.355469 C 292.59375 72.214844 290.554688 72.269531 289.035156 72.484375 C 287.511719 72.707031 284.621094 73.070312 282.617188 73.300781 C 279.488281 73.65625 275.675781 74.414062 273.855469 75.035156 C 273.574219 75.132812 274.859375 76.238281 276.734375 77.492188 C 287.550781 84.78125 294.871094 94.183594 298.898438 105.949219 C 301.222656 112.777344 301.917969 116.792969 301.925781 123.570312 C 301.933594 132.503906 300.746094 137.855469 296.972656 145.804688 C 294.085938 151.898438 290.414062 157.25 286 161.792969 C 279.644531 168.332031 272.476562 172.785156 263.589844 175.730469 C 257.589844 177.710938 252.820312 178.476562 246.234375 178.507812 L 240.898438 178.535156 L 239.105469 184.925781 C 236.796875 193.1875 236.695312 193.929688 237.429688 197.335938 C 237.761719 198.886719 238.742188 203.949219 239.601562 208.59375 C 242.183594 222.480469 243.753906 228.515625 249.386719 246.203125 C 251.128906 251.6875 253.199219 258.515625 253.984375 261.359375 C 254.769531 264.214844 255.527344 266.738281 255.667969 266.976562 C 255.808594 267.214844 259.324219 271.28125 263.472656 276 C 267.625 280.722656 273.144531 287.089844 275.734375 290.148438 L 280.453125 295.714844 L 283.167969 295.738281 C 287.179688 295.773438 290.042969 297.519531 291.40625 300.796875 C 291.777344 301.695312 292.304688 302.066406 293.886719 302.566406 C 298.90625 304.152344 307.378906 310.542969 311.597656 315.925781 C 316.132812 321.722656 319.90625 329.1875 321.199219 334.933594 C 321.53125 336.378906 321.953125 339.808594 322.140625 342.554688 C 322.539062 348.320312 321.902344 356.078125 320.589844 361.273438 C 320.160156 363.015625 319.714844 364.804688 319.609375 365.25 C 319.453125 365.910156 319.832031 366.386719 321.464844 367.589844 C 322.59375 368.421875 323.75 369.398438 324.046875 369.742188 C 324.335938 370.089844 324.816406 370.378906 325.113281 370.378906 C 325.410156 370.378906 325.753906 370.632812 325.871094 370.957031 C 325.996094 371.269531 326.414062 371.53125 326.804688 371.53125 C 327.902344 371.53125 327.992188 372.109375 327.027344 372.941406 C 326.390625 373.496094 325.359375 376.125 323.355469 382.3125 C 321.820312 387.042969 319.527344 393.707031 318.246094 397.128906 L 315.929688 403.347656 L 318.402344 406.339844 C 319.757812 407.988281 322.453125 411.511719 324.386719 414.167969 C 326.324219 416.828125 329.007812 420.1875 330.34375 421.628906 L 332.785156 424.25 L 343.125 421.292969 C 348.820312 419.660156 356.300781 417.433594 359.761719 416.335938 C 365.535156 414.511719 366.082031 414.257812 366.425781 413.277344 C 366.863281 412.007812 367.039062 411.964844 373.226562 411.519531 L 378.003906 411.179688 L 379.117188 409.871094 C 379.730469 409.152344 381.402344 406.917969 382.847656 404.90625 C 385.503906 401.179688 388.375 398.210938 388.96875 398.574219 C 389.144531 398.679688 389.382812 398.425781 389.492188 398.003906 C 389.746094 397.039062 390.984375 397.03125 393.03125 397.96875 C 398.664062 400.585938 401.183594 409.664062 398.527344 417.777344 C 397.269531 421.613281 396.957031 421.917969 394.632812 421.621094 C 391.542969 421.226562 384.035156 419.511719 382.136719 418.757812 L 380.429688 418.089844 L 376.429688 421.199219 C 371.128906 425.308594 370.71875 425.554688 369.882812 425.019531 C 369.363281 424.679688 368.671875 424.796875 366.722656 425.539062 C 365.347656 426.058594 357.828125 428.863281 350.015625 431.765625 C 336.21875 436.886719 323.875 441.972656 314.945312 446.203125 C 312.007812 447.597656 309.90625 448.898438 308.460938 450.21875 C 306.167969 452.3125 296.644531 459.570312 294.640625 460.757812 C 293.691406 461.320312 293.128906 462.195312 292.082031 464.765625 C 291.347656 466.574219 290.628906 468.445312 290.496094 468.914062 C 290.011719 470.597656 288.351562 471.488281 287.394531 470.589844 Z M 289.777344 464.007812 C 291.347656 460.355469 291.347656 460.171875 289.820312 460.164062 C 287.957031 460.164062 286.839844 459.769531 286.839844 459.125 C 286.839844 458.664062 287.335938 458.582031 289.417969 458.6875 L 292 458.828125 L 295.355469 450.515625 C 297.195312 445.941406 300.464844 437.222656 302.609375 431.128906 C 304.765625 425.042969 307.808594 416.871094 309.394531 412.960938 C 310.976562 409.054688 313.394531 403.101562 314.757812 399.71875 C 319.839844 387.136719 323.339844 375.738281 321.820312 376.671875 C 321.523438 376.859375 312.015625 375.359375 308.527344 374.574219 C 304.351562 373.644531 294.046875 370.683594 289.144531 369 C 279.011719 365.527344 260.363281 357.441406 253.09375 353.359375 C 251.328125 352.367188 249.742188 351.550781 249.570312 351.550781 C 249.394531 351.550781 248.800781 353.070312 248.257812 354.917969 C 244.527344 367.5 226.738281 421.554688 224.847656 426.042969 C 224.660156 426.503906 225.320312 427.082031 227.585938 428.398438 C 234.238281 432.292969 245.34375 437.601562 256.65625 442.304688 C 262.640625 444.777344 279.464844 451.027344 281.5625 451.546875 C 282.914062 451.886719 283.242188 452.421875 282.527344 453.128906 C 282.023438 453.632812 281.4375 453.535156 277.582031 452.3125 C 259.242188 446.523438 233.75 435.113281 226.160156 429.296875 C 225.210938 428.574219 224.335938 428.09375 224.210938 428.242188 C 223.875 428.628906 222.605469 432.183594 222.761719 432.277344 C 225.234375 433.613281 240.839844 441.140625 245.75 443.375 C 258.664062 449.238281 268.117188 452.851562 278.203125 455.753906 C 280.941406 456.542969 283.359375 457.34375 283.558594 457.535156 C 283.789062 457.75 283.707031 458.09375 283.335938 458.464844 C 282.796875 459.003906 282.222656 458.929688 277.394531 457.722656 C 270.480469 455.992188 263.539062 453.566406 254.007812 449.535156 C 244.972656 445.71875 228.164062 437.527344 224.675781 435.246094 C 223.328125 434.371094 222.191406 433.703125 222.148438 433.769531 C 222.101562 433.824219 221.613281 435.121094 221.0625 436.628906 L 220.0625 439.375 L 227.820312 443.796875 C 242.710938 452.273438 250.277344 455.800781 261.832031 459.660156 C 269.414062 462.195312 286.734375 467.058594 287.789062 466.960938 C 288.34375 466.902344 288.878906 466.101562 289.777344 464.007812 Z M 285.488281 452.859375 C 285.347656 452.644531 285.464844 452.191406 285.726562 451.867188 C 286.171875 451.332031 286.273438 451.339844 286.710938 451.941406 C 286.980469 452.304688 287.105469 452.75 287 452.933594 C 286.71875 453.386719 285.785156 453.34375 285.488281 452.859375 Z M 292.988281 448.941406 C 292.988281 448.058594 294.433594 442.453125 295.265625 440.078125 C 298.453125 431.015625 302.453125 421.792969 303.203125 421.792969 C 303.5 421.792969 303.742188 422.007812 303.742188 422.273438 C 303.742188 422.925781 301.660156 428.664062 298.417969 436.953125 C 294.269531 447.574219 293.648438 449.039062 293.300781 449.039062 C 293.128906 449.039062 292.988281 449 292.988281 448.941406 Z M 304.699219 416.515625 C 304.847656 416.144531 305.152344 415.320312 305.367188 414.695312 C 305.902344 413.128906 306.429688 412.609375 306.429688 413.640625 C 306.429688 414.667969 305.257812 417.183594 304.78125 417.183594 C 304.582031 417.183594 304.550781 416.878906 304.699219 416.515625 Z M 308.34375 408.023438 C 308.34375 407.832031 308.617188 407.042969 308.9375 406.257812 C 309.269531 405.476562 309.714844 403.867188 309.9375 402.679688 C 310.160156 401.492188 311.597656 397.144531 313.140625 393.023438 C 314.683594 388.898438 316.324219 384.265625 316.792969 382.738281 C 317.75 379.589844 318.71875 378.945312 318.71875 381.453125 C 318.71875 383.078125 317.273438 387.488281 313.972656 395.890625 C 309.871094 406.367188 309.03125 408.359375 308.691406 408.359375 C 308.5 408.359375 308.34375 408.203125 308.34375 408.023438 Z M 302.914062 451.738281 C 305.738281 449.519531 308.585938 447.300781 309.253906 446.804688 C 312.59375 444.339844 330.683594 436.300781 343.890625 431.402344 C 358.605469 425.941406 367.773438 422.480469 368.257812 422.171875 C 368.621094 421.949219 368.539062 421.292969 367.886719 419.335938 C 367.425781 417.941406 366.914062 416.796875 366.757812 416.796875 C 366.601562 416.796875 365.191406 417.242188 363.621094 417.777344 C 362.054688 418.324219 354.808594 420.476562 347.523438 422.578125 C 340.230469 424.671875 333.964844 426.5625 333.601562 426.773438 C 333.238281 426.988281 332.703125 427.164062 332.414062 427.164062 C 332.132812 427.164062 327.296875 428.53125 321.671875 430.207031 C 316.050781 431.878906 309.738281 433.644531 307.652344 434.132812 L 303.855469 435.023438 L 302.773438 438.097656 C 302.1875 439.789062 300.324219 444.628906 298.640625 448.851562 C 296.964844 453.074219 295.488281 456.777344 295.367188 457.082031 C 295.085938 457.796875 296.480469 456.808594 302.914062 451.738281 Z M 301.503906 449.402344 C 300.597656 448.257812 300.507812 447.109375 301.289062 446.847656 C 301.527344 446.773438 302 447.40625 302.347656 448.265625 C 303.386719 450.863281 303.03125 451.339844 301.503906 449.402344 Z M 303.574219 445.519531 C 302.15625 443.851562 301.792969 442.519531 302.757812 442.519531 C 303.46875 442.519531 305.09375 444.6875 305.425781 446.0625 C 305.777344 447.554688 305.167969 447.375 303.574219 445.519531 Z M 306.53125 445.066406 C 304.804688 443.472656 304.335938 442.914062 303.46875 441.453125 C 302.511719 439.828125 302.503906 438.675781 303.445312 438.675781 C 303.988281 438.675781 306.984375 442.980469 307.371094 444.308594 C 307.652344 445.289062 307.207031 445.691406 306.53125 445.066406 Z M 310.167969 442.285156 C 309.65625 441.777344 310.417969 440.984375 311.398438 440.984375 C 312.769531 440.984375 314.507812 440.367188 327.027344 435.46875 C 332.761719 433.222656 337.746094 431.386719 338.089844 431.386719 C 339.039062 431.386719 338.472656 432.027344 337.25 432.332031 C 336.664062 432.472656 331.523438 434.578125 325.820312 437.007812 C 314.664062 441.757812 310.902344 443.027344 310.167969 442.285156 Z M 348.746094 427.261719 C 348.84375 426.75 349.304688 426.570312 350.691406 426.511719 C 351.691406 426.46875 352.515625 426.511719 352.515625 426.625 C 352.515625 426.914062 349.949219 427.929688 349.230469 427.929688 C 348.851562 427.929688 348.660156 427.675781 348.746094 427.261719 Z M 311.066406 430.816406 C 318.660156 428.613281 329.535156 425.308594 329.675781 425.167969 C 329.742188 425.101562 328.867188 423.972656 327.726562 422.652344 C 326.597656 421.332031 323.652344 417.472656 321.191406 414.085938 C 316.308594 407.363281 315.027344 405.761719 314.773438 406.050781 C 314.136719 406.792969 304.886719 431.359375 304.886719 432.308594 C 304.886719 432.628906 304.550781 432.710938 311.066406 430.816406 Z M 375.992188 419.222656 L 380.265625 415.882812 L 383.574219 416.730469 C 385.398438 417.199219 388.394531 417.910156 390.242188 418.304688 C 393.394531 418.980469 393.609375 418.980469 393.609375 418.371094 C 393.609375 418.007812 392.847656 415.050781 391.925781 411.792969 C 391 408.527344 390.027344 404.824219 389.769531 403.5625 C 389.507812 402.292969 389.226562 401.011719 389.136719 400.707031 C 388.9375 400.074219 387.550781 401.640625 384.582031 405.835938 C 380.800781 411.171875 378.953125 413.300781 377.90625 413.5 C 377.351562 413.605469 375.035156 413.8125 372.746094 413.953125 C 369.917969 414.125 368.648438 414.347656 368.753906 414.644531 C 368.84375 414.875 369.488281 416.753906 370.191406 418.816406 C 370.890625 420.871094 371.519531 422.5625 371.585938 422.5625 C 371.660156 422.5625 373.640625 421.058594 375.992188 419.222656 Z M 397.230469 411.792969 C 397.253906 407.421875 397.230469 407.3125 395.800781 404.425781 C 394.5 401.789062 392.585938 399.527344 391.652344 399.527344 C 391.148438 399.527344 391.164062 399.628906 392.652344 404.90625 C 393.386719 407.542969 394.433594 411.339844 394.96875 413.351562 C 396.332031 418.386719 396.289062 418.3125 396.792969 417.183594 C 397.023438 416.65625 397.222656 414.234375 397.230469 411.792969 Z M 323.726562 374.929688 C 323.964844 374.492188 324.097656 374.082031 324.03125 374.015625 C 323.957031 373.949219 321.398438 373.183594 318.328125 372.300781 C 315.269531 371.425781 311.851562 370.296875 310.738281 369.785156 C 309.632812 369.28125 307.816406 368.695312 306.710938 368.480469 C 304.523438 368.078125 295.738281 365.148438 289.910156 362.882812 C 287.90625 362.105469 280.472656 359.261719 273.398438 356.566406 C 266.320312 353.859375 258.40625 350.6875 255.808594 349.488281 C 253.207031 348.300781 251.03125 347.328125 250.957031 347.328125 C 250.699219 347.328125 249.875 349.671875 250.074219 349.859375 C 250.527344 350.316406 270.644531 359.320312 277.394531 362.089844 C 289.425781 367.03125 301.964844 370.882812 314.871094 373.59375 C 318.570312 374.371094 321.851562 375.160156 322.175781 375.351562 C 323.039062 375.863281 323.253906 375.804688 323.726562 374.929688 Z M 240.972656 370.648438 C 241.761719 368.273438 242.480469 366.113281 242.582031 365.851562 C 242.679688 365.585938 242.496094 365.371094 242.167969 365.371094 C 241.796875 365.371094 241.300781 364.523438 240.796875 362.972656 C 239.3125 358.46875 238.75 354.957031 238.726562 350.019531 C 238.695312 342.652344 240.144531 336.484375 243.355469 330.316406 L 244.726562 327.695312 L 243.273438 326.359375 C 242.472656 325.625 241.597656 325.105469 241.335938 325.210938 C 240.253906 325.625 237.265625 332.660156 235.945312 337.894531 C 234.75 342.628906 234.609375 343.726562 234.601562 348.425781 C 234.59375 357.019531 236.195312 367.269531 238.371094 372.570312 C 238.910156 373.882812 239.394531 374.964844 239.445312 374.964844 C 239.496094 374.964844 240.1875 373.023438 240.972656 370.648438 Z M 318.914062 368.71875 C 318.28125 368.25 316.117188 366.46875 314.113281 364.769531 C 312.097656 363.0625 308.855469 360.425781 306.894531 358.898438 L 303.320312 356.128906 L 298.542969 358.453125 C 295.910156 359.730469 293.757812 360.84375 293.757812 360.917969 C 293.757812 361.003906 296.132812 361.894531 299.039062 362.90625 C 301.941406 363.914062 304.671875 364.976562 305.109375 365.25 C 306.511719 366.140625 317.3125 369.5625 318.71875 369.570312 L 320.0625 369.570312 L 318.914062 368.710938 Z M 318.503906 358.941406 C 319.515625 354.535156 319.625 353.421875 319.589844 347.71875 C 319.558594 340.582031 319.054688 335.816406 317.890625 331.59375 C 316.761719 327.480469 315.671875 325.433594 312.125 320.703125 C 306.84375 313.667969 301.949219 309.257812 295.820312 306 C 292.238281 304.09375 291.859375 304.136719 291.832031 306.460938 C 291.824219 307.085938 291.46875 308.367188 291.058594 309.28125 C 290.636719 310.203125 290.300781 311.019531 290.300781 311.101562 C 290.300781 311.175781 291.386719 311.738281 292.714844 312.339844 C 296.5625 314.089844 300.226562 316.703125 303.675781 320.183594 C 308.789062 325.335938 311.464844 329.558594 313.585938 335.816406 C 314.617188 338.875 314.683594 339.460938 314.675781 345.21875 C 314.664062 350.6875 314.542969 351.847656 313.566406 355.757812 L 312.472656 360.144531 L 314.535156 361.976562 C 315.671875 362.988281 316.777344 363.8125 316.984375 363.824219 C 317.199219 363.824219 317.882812 361.636719 318.503906 358.941406 Z M 245.453125 356.640625 C 248.917969 345.441406 249.859375 343.460938 251.246094 344.574219 C 252.046875 345.21875 272.574219 353.175781 287.796875 358.742188 L 290.488281 359.722656 L 295.867188 357.125 C 298.824219 355.707031 301.644531 354.386719 302.132812 354.199219 C 302.867188 353.917969 303.648438 354.257812 306.636719 356.128906 C 308.625 357.382812 310.324219 358.289062 310.417969 358.148438 C 310.5 358 310.9375 356.203125 311.382812 354.148438 C 312.554688 348.707031 312.496094 342.726562 311.226562 338.332031 C 309.425781 332.148438 306.363281 327.199219 301.09375 321.964844 C 297.429688 318.328125 293.292969 315.472656 289.671875 314.097656 C 288.121094 313.503906 288.054688 313.511719 286.402344 314.550781 C 284.457031 315.777344 281.800781 316.15625 279.785156 315.5 C 279.011719 315.234375 277.75 314.285156 276.882812 313.304688 L 275.363281 311.582031 L 273.136719 311.84375 C 270.097656 312.214844 264.917969 313.734375 261.78125 315.167969 C 259.265625 316.324219 259.191406 316.398438 259.191406 317.765625 C 259.191406 320.414062 258.085938 323.132812 256.195312 325.15625 C 253.726562 327.785156 251.90625 328.667969 248.851562 328.691406 L 246.394531 328.726562 L 244.925781 331.660156 C 242.109375 337.320312 240.417969 345.65625 240.9375 351.328125 C 241.21875 354.347656 243.027344 362.304688 243.4375 362.304688 C 243.578125 362.304688 244.488281 359.757812 245.453125 356.648438 Z M 253.644531 324.882812 C 256.152344 322.976562 257.308594 318.515625 255.957031 315.933594 C 254.578125 313.296875 251.054688 311.277344 247.789062 311.261719 C 244.90625 311.261719 244.042969 311.707031 243.265625 313.625 C 241.144531 318.878906 242.589844 322.996094 247.480469 325.640625 C 249.164062 326.558594 251.894531 326.21875 253.644531 324.882812 Z M 262.410156 312.652344 C 265.164062 311.433594 269.84375 310.113281 273.5 309.527344 L 274.933594 309.296875 L 274.941406 307.300781 C 274.941406 306.203125 275.050781 304.917969 275.175781 304.441406 C 275.386719 303.664062 275.273438 303.574219 274.042969 303.574219 C 270.601562 303.574219 264.167969 305.453125 259.273438 307.886719 C 255.195312 309.914062 254.957031 310.203125 256.378906 311.398438 C 256.988281 311.910156 257.730469 312.785156 258.027344 313.335938 C 258.324219 313.898438 258.746094 314.269531 258.976562 314.171875 C 259.199219 314.070312 260.742188 313.386719 262.410156 312.652344 Z M 286.164062 312.191406 C 287.871094 311.070312 289.101562 308.820312 289.40625 306.253906 C 289.835938 302.675781 287.164062 299.015625 283.523438 298.199219 C 280.167969 297.4375 277.238281 301.414062 277.238281 306.734375 C 277.238281 308.867188 277.832031 310.210938 279.457031 311.753906 C 281.550781 313.742188 283.582031 313.875 286.164062 312.191406 Z M 244.867188 309.875 C 246.558594 308.960938 246.988281 308.894531 250.164062 309.066406 L 253.621094 309.246094 L 256.3125 307.625 C 261.433594 304.515625 267.070312 302.453125 272.683594 301.628906 C 276.132812 301.117188 276.90625 300.695312 277.632812 298.957031 C 278.0625 297.910156 277.988281 297.710938 276.421875 295.8125 C 272.582031 291.164062 255.75 271.355469 255.015625 270.621094 C 253.679688 269.285156 252.351562 266.226562 250.78125 260.898438 C 249.957031 258.085938 247.871094 251.308594 246.136719 245.816406 C 241.988281 232.65625 239.609375 223.277344 237.53125 211.914062 C 236.597656 206.777344 235.765625 202.507812 235.683594 202.433594 C 235.367188 202.117188 226.09375 259.441406 224.996094 268.460938 C 224.351562 273.738281 223.585938 279.527344 223.289062 281.316406 C 222.992188 283.113281 222.644531 285.785156 222.519531 287.269531 C 222.390625 288.746094 222.191406 290.617188 222.066406 291.425781 L 221.859375 292.902344 L 220.707031 291.816406 C 219.601562 290.757812 219.566406 290.636719 219.796875 288.226562 C 219.929688 286.859375 220.550781 282.191406 221.160156 277.863281 C 221.777344 273.539062 222.628906 266.976562 223.058594 263.28125 C 223.488281 259.589844 225.039062 249.476562 226.523438 240.828125 C 232.917969 203.398438 233.007812 202.8125 232.429688 203.59375 C 232.117188 204.023438 229.574219 207.90625 226.789062 212.238281 C 218.03125 225.792969 193.484375 260.890625 190.390625 264.28125 L 189.648438 265.089844 L 197.058594 271.957031 C 209.832031 283.792969 220.054688 293.027344 224.433594 296.6875 C 227.800781 299.507812 242.636719 310.871094 242.945312 310.871094 C 242.984375 310.871094 243.851562 310.425781 244.867188 309.875 Z M 257.679688 174.460938 C 275.554688 170.742188 288.765625 159.648438 295.613281 142.613281 C 298.136719 136.34375 298.558594 133.632812 298.535156 124.148438 C 298.507812 117.632812 298.433594 116.984375 297.28125 112.636719 C 295.339844 105.378906 293.351562 100.871094 289.597656 95.171875 C 285.644531 89.191406 277.972656 82.101562 271.179688 78.160156 L 268.777344 76.765625 L 266.863281 77.523438 C 265.808594 77.9375 263.917969 78.792969 262.65625 79.429688 C 260.164062 80.691406 258.804688 80.90625 258.804688 80.039062 C 258.804688 79.296875 260.363281 78.125 263.273438 76.691406 C 264.621094 76.03125 265.71875 75.429688 265.71875 75.355469 C 265.71875 75.28125 264.554688 74.6875 263.125 74.035156 C 260.371094 72.78125 253.101562 71.101562 249.601562 70.910156 C 247.523438 70.804688 247.5 70.8125 246.410156 72.4375 C 244.765625 74.867188 243.296875 74.539062 244.371094 71.964844 L 244.941406 70.605469 L 242.628906 70.605469 C 239.964844 70.605469 232.8125 71.59375 230.121094 72.335938 L 228.273438 72.839844 L 230.003906 72.882812 C 230.953125 72.914062 231.984375 73.085938 232.308594 73.285156 C 233.503906 74.042969 231.953125 74.582031 227.800781 74.859375 C 219.128906 75.429688 210.894531 79.636719 204.929688 86.527344 C 198.460938 94.015625 193.738281 104.117188 191.941406 114.359375 C 190.96875 119.910156 190.753906 131.132812 191.546875 135.472656 C 193.898438 148.292969 201.800781 158.667969 215.367188 166.726562 C 223.015625 171.277344 229.78125 173.703125 238.835938 175.128906 C 239.363281 175.21875 242.820312 175.300781 246.515625 175.335938 C 252.257812 175.375 253.886719 175.242188 257.679688 174.460938 Z M 257.902344 162.699219 C 254.734375 162.253906 250.089844 160.746094 247.804688 159.402344 C 245.007812 157.769531 242.679688 155.261719 242.679688 153.894531 C 242.679688 152.003906 243.644531 152.03125 245.683594 153.976562 C 248.160156 156.34375 249.496094 157.199219 252.539062 158.355469 C 256.1875 159.742188 260.1875 160.390625 265.191406 160.410156 C 271.121094 160.433594 274.597656 159.632812 277.328125 157.652344 C 277.839844 157.28125 278.085938 157.273438 278.449219 157.628906 C 279.6875 158.867188 277.03125 161.035156 272.824219 162.222656 C 270.4375 162.890625 261.433594 163.179688 257.902344 162.691406 Z M 280.761719 133.433594 C 279.589844 132.179688 279.695312 130.292969 281.105469 127.480469 C 282.617188 124.453125 284.917969 122.425781 286.832031 122.425781 C 288.757812 122.425781 289.144531 122.96875 289.136719 125.667969 C 289.128906 128.394531 288.277344 130.480469 286.414062 132.347656 C 284.257812 134.515625 282.164062 134.917969 280.761719 133.433594 Z M 260.847656 129.640625 C 259.472656 128.980469 258.992188 127.300781 259.527344 125 C 260.4375 121.066406 263.621094 117.4375 266.15625 117.4375 C 267.929688 117.4375 268.554688 118.820312 268.300781 122.195312 C 267.863281 127.960938 264.4375 131.382812 260.847656 129.640625 Z M 256.5 111.449219 C 256.5 109.378906 260.734375 106.601562 263.960938 106.550781 C 266.113281 106.519531 267.988281 107.507812 268.011719 108.679688 C 268.027344 109.726562 267.492188 109.777344 265.726562 108.910156 C 264.25 108.175781 263.894531 108.144531 262.34375 108.554688 C 260.28125 109.109375 258.554688 110.253906 258.226562 111.300781 C 257.9375 112.207031 256.5 112.332031 256.5 111.449219 Z M 289.53125 111.65625 C 289.53125 111.441406 289.101562 110.832031 288.582031 110.3125 C 287.898438 109.628906 287.230469 109.371094 286.117188 109.371094 C 284.425781 109.371094 283.839844 108.867188 284.546875 108.011719 C 285.175781 107.261719 288.351562 107.285156 289.449219 108.050781 C 290.746094 108.960938 291.609375 110.832031 291.042969 111.507812 C 290.511719 112.152344 289.53125 112.242188 289.53125 111.65625 Z M 458.316406 465.863281 C 456.632812 465.671875 455.132812 465.394531 454.984375 465.246094 C 454.84375 465.089844 454.59375 464.46875 454.445312 463.859375 C 454.191406 462.828125 454.238281 462.761719 455.089844 462.976562 C 456.9375 463.429688 461.195312 463.726562 461.179688 463.390625 C 461.171875 463.199219 460.933594 462.621094 460.632812 462.09375 C 460.261719 461.417969 460.222656 460.988281 460.503906 460.652344 C 461.277344 459.726562 461.945312 460.179688 462.476562 461.996094 L 463.003906 463.816406 L 465.445312 463.933594 C 467.894531 464.050781 468.472656 464.371094 468.488281 465.640625 C 468.488281 466.234375 468.085938 466.308594 464.941406 466.257812 C 462.988281 466.234375 460.007812 466.054688 458.316406 465.863281 Z M 440.070312 462.441406 C 440.070312 461.054688 440.210938 460.535156 440.550781 460.652344 C 441.128906 460.839844 441.375 462.210938 441.0625 463.472656 C 440.65625 465.078125 440.070312 464.46875 440.070312 462.441406 Z M 414.34375 463.496094 C 414.34375 463.199219 414.0625 462.070312 413.714844 461.007812 C 413.007812 458.820312 413.230469 457.34375 414.128906 458.277344 C 414.8125 459.003906 415.324219 463.445312 414.757812 463.792969 C 414.535156 463.941406 414.34375 463.792969 414.34375 463.496094 Z M 446.382812 462.910156 C 445.128906 462.308594 443.519531 461.171875 442.8125 460.363281 C 441.605469 458.992188 441.53125 458.753906 441.6875 456.660156 C 441.8125 454.894531 442.09375 454.128906 443 453.007812 C 443.636719 452.222656 444.339844 451.523438 444.5625 451.449219 C 445.335938 451.191406 445.453125 452.5625 444.742188 453.585938 C 443.035156 456.035156 443.660156 458.390625 446.449219 460.023438 C 447.703125 460.757812 448.214844 461.34375 448.503906 462.390625 C 448.710938 463.148438 448.835938 463.828125 448.777344 463.882812 C 448.71875 463.941406 447.648438 463.503906 446.382812 462.910156 Z M 427.25 456.066406 C 425.804688 449.132812 422.289062 440.941406 417.972656 434.4375 C 415.910156 431.328125 410.277344 425.6875 407.339844 423.789062 C 405.085938 422.332031 404.679688 421.515625 406.324219 421.703125 C 408.195312 421.917969 414.238281 427.0625 417.949219 431.617188 C 420.351562 434.558594 423.585938 440.753906 425.34375 445.773438 C 426.457031 448.957031 428.554688 457.277344 428.554688 458.53125 C 428.554688 460.445312 427.902344 459.226562 427.25 456.066406 Z M 452.144531 457.433594 C 451.707031 456.734375 452.546875 456.3125 455.28125 455.886719 C 457.621094 455.523438 464.835938 455.597656 465.191406 455.992188 C 465.265625 456.074219 465.445312 456.527344 465.585938 457 C 465.832031 457.804688 465.765625 457.839844 464.578125 457.574219 C 462.953125 457.210938 455.238281 457.203125 453.628906 457.574219 C 452.878906 457.742188 452.292969 457.691406 452.144531 457.445312 Z M 468.027344 456.71875 C 467.90625 456.394531 467.246094 454.589844 466.550781 452.683594 C 465.230469 449.066406 463.011719 445.039062 459.140625 439.253906 C 449.171875 424.34375 438.992188 414.371094 428.363281 409.128906 C 421.871094 405.929688 417.59375 404.839844 410.308594 404.550781 C 405.546875 404.371094 404.550781 404.230469 404.550781 403.75 C 404.550781 402.859375 414.582031 402.753906 418.734375 403.59375 C 427.074219 405.285156 435.402344 409.796875 443.679688 417.09375 C 451.449219 423.953125 459.742188 435.160156 464.222656 444.875 C 466.460938 449.726562 468.554688 455.546875 468.390625 456.46875 C 468.285156 457.082031 468.183594 457.148438 468.027344 456.71875 Z M 448.902344 449.789062 C 448.347656 448.769531 448.339844 448.777344 450.535156 448.027344 C 452.929688 447.210938 460.074219 447.085938 461.476562 447.835938 C 461.953125 448.09375 462.613281 448.835938 462.953125 449.484375 L 463.574219 450.679688 L 462.484375 450.425781 C 461.878906 450.292969 459.734375 449.980469 457.722656 449.734375 C 454.621094 449.355469 453.695312 449.378906 451.664062 449.890625 C 449.394531 450.46875 449.257812 450.457031 448.902344 449.789062 Z M 411.910156 446.070312 C 410.605469 440.042969 408.253906 436.472656 402.980469 432.515625 C 400.992188 431.023438 399.367188 429.613281 399.367188 429.390625 C 399.367188 428.597656 401.769531 429.480469 403.921875 431.0625 C 406.679688 433.09375 408.617188 435.46875 410.308594 438.898438 C 411.96875 442.246094 413.550781 448.066406 412.964844 448.652344 C 412.675781 448.941406 412.363281 448.175781 411.910156 446.070312 Z M 433.355469 441.859375 C 432.503906 440.488281 431.425781 439.0625 430.953125 438.683594 C 429.9375 437.867188 429.855469 437.3125 430.699219 436.992188 C 431.878906 436.539062 432.390625 436.777344 433.332031 438.195312 C 434.222656 439.550781 435.300781 443.257812 435.015625 444.011719 C 434.949219 444.191406 434.195312 443.226562 433.355469 441.859375 Z M 401.527344 397.3125 C 401.042969 396.519531 402.414062 395.964844 404.234375 396.214844 C 407.207031 396.625 407.097656 397.03125 403.921875 397.417969 C 402.617188 397.582031 401.667969 397.542969 401.527344 397.3125 Z M 401.527344 397.3125 " fill-opacity="1" fill-rule="nonzero"/></g></svg>